<?xml version="1.0" encoding="UTF-8"?>
<svg width="1862px" height="455px" viewBox="0 0 1862 455" version="1.1" xmlns="http://www.w3.org/2000/svg" xmlns:xlink="http://www.w3.org/1999/xlink">
    <title>Alsafa News/media/icons/graphical/about us section</title>
    <defs>
        <rect id="path-1" x="0" y="0" width="1862" height="455"></rect>
    </defs>
    <g id="Symbols" stroke="none" stroke-width="1" fill="none" fill-rule="evenodd">
        <g id="Group-13" transform="translate(931.000000, 227.500000) scale(-1, 1) translate(-931.000000, -227.500000) ">
            <mask id="mask-2" fill="white">
                <use xlink:href="#path-1"></use>
            </mask>
            <g id="bg-copy-2" opacity="0.0419253395"></g>
            <g id="Group-59" opacity="0.363840012" mask="url(#mask-2)">
                <g transform="translate(1122.000000, 288.000000)">
                    <path d="M123.61575,42.360397 C116.309297,50.2455365 137.341587,79.8444681 140.758043,84.6524417 L140.758043,84.6524417 C153.151837,102.094604 177.070701,126.99503 186.827663,121.590741 L186.827663,121.590741 C195.076478,117.022394 192.661609,91.094063 181.470663,72.8746219 L181.470663,72.8746219 C168.735931,52.1413326 143.836706,40.0916745 130.776498,40.0916745 L130.776498,40.0916745 C127.540862,40.0916745 125.033224,40.8307182 123.61575,42.360397" id="Fill-1" fill="none"></path>
                    <path d="M57.4569886,44.037256 C57.8954124,92.7463047 50.0407334,143.209731 51.1078356,193.801219 L51.1078356,193.801219 C51.37828,206.617943 60.5723398,210.617735 71.8159591,221.850569 L71.8159591,221.850569 C93.0903911,243.103441 140.447766,235.037861 156.981036,210.524765 L156.981036,210.524765 C159.797116,206.348723 161.443892,203.881753 162.243694,201.035047 L162.243694,201.035047 C166.582073,185.590293 161.593789,171.270079 159.879927,166.753324 L159.879927,166.753324 C144.22927,125.513539 174.78031,69.8257397 147.484298,46.5759834 L147.484298,46.5759834 C136.237534,36.9964385 119.949027,36.9946053 99.6672729,36.9922475 L99.6672729,36.9922475 C81.6528485,36.9901532 67.0273645,40.7778171 57.4569886,44.037256" id="Fill-16" fill="#FFE9AF" fill-rule="evenodd"></path>
                    <path d="M68.2498673,105.841152 C64.3834564,95.2622479 68.3898065,83.1528798 59.7691306,77.8667016 C56.6102776,75.9297893 52.6841174,75.1087753 48.407585,75.2027925 C48.9193852,112.387004 49.6515766,149.535598 50.5567266,188.341934 C50.8554733,201.158657 52.4592712,201.793208 64.8918499,213.026042 C79.2966807,226.04049 104.120957,230.289336 125.412947,226.031062 C97.5278274,208.893474 77.6315611,191.140715 80.481185,175.924326 C83.7998937,158.203254 116.273657,152.970239 114.967033,140.370881 C113.581792,127.017553 76.7015155,128.967035 68.2498673,105.841152" id="Fill-19" fill="none"></path>
                    <path d="M21.8432405,68.8473319 C16.0234456,75.3727568 -4.23813028,98.092193 0.79601322,128.611917 L0.79601322,128.611917 C1.61599422,133.585403 5.39304317,156.838302 25.3118466,168.22853 L25.3118466,168.22853 C43.1459747,178.427436 67.2281013,175.803858 86.5226813,161.359772 L86.5226813,161.359772 C89.1589897,159.021388 91.7963463,156.683789 94.4334408,154.345143 L94.4334408,154.345143 C97.0275578,151.54322 99.6219368,148.741297 102.215792,145.938588 L102.215792,145.938588 C98.1378996,142.548991 91.2090732,137.658785 81.4785796,134.520862 L81.4785796,134.520862 C74.0298292,132.119101 67.863069,132.714369 63.1203345,133.309113 L63.1203345,133.309113 C58.4218879,133.898358 55.1212613,134.487602 53.3565595,132.16336 L53.3565595,132.16336 C48.990403,126.414166 62.2825335,115.701962 65.7700078,91.331594 L65.7700078,91.331594 C66.7110599,84.7553631 76.7974289,52.2460872 66.3255718,45.1809142 L66.3255718,45.1809142 C64.8729816,44.2009351 63.1009422,43.7552043 61.1001256,43.7552043 L61.1001256,43.7552043 C50.1903688,43.7538949 32.4238518,56.9828276 21.8432405,68.8473319" id="Fill-22" fill="#FFE9AF" fill-rule="evenodd"></path>
                    <path d="M85.3981884,209.704013 C81.4468705,230.408233 91.9512229,221.01227 113.911724,207.024914 L113.911724,207.024914 C137.040482,192.293277 188.593413,169.119992 214.123413,189.233919 L214.123413,189.233919 C233.13759,204.214611 223.940386,232.221273 253.717043,258.658449 L253.717043,258.658449 C258.962406,263.315052 263.791357,266.439619 266.791665,268.230923 L266.791665,268.230923 C271.356986,265.726503 275.922569,263.222606 280.48789,260.717924 L280.48789,260.717924 C281.157711,249.558942 282.417164,206.686819 251.659622,171.798304 L251.659622,171.798304 C244.22345,163.363465 230.060237,147.15636 208.313838,142.03386 L208.313838,142.03386 C202.53309,140.672051 196.728233,140.04719 190.970546,140.04719 L190.970546,140.04719 C138.171002,140.041952 88.6836156,192.486549 85.3981884,209.704013" id="Fill-25" fill="#FFE9AF" fill-rule="evenodd"></path>
                    <path d="M60.7620702,193.503454 C58.0426893,205.445215 63.0875772,218.270319 70.506715,225.766557 L70.506715,225.766557 C86.9755184,242.40787 119.226532,236.918206 138.760896,227.953833 L138.760896,227.953833 C162.529338,217.047047 166.396273,201.52137 176.502035,204.120855 L176.502035,204.120855 C192.206151,208.160454 185.567162,246.440136 216.096189,273.545385 L216.096189,273.545385 C221.341028,278.20225 226.170503,281.326032 229.170549,283.117859 L229.170549,283.117859 C233.735608,280.613177 238.301453,278.109018 242.866511,275.604336 L242.866511,275.604336 C243.669459,249.702718 238.778137,229.558673 234.588608,216.808992 L234.588608,216.808992 C229.784814,202.187871 225.481027,189.089358 213.502858,177.318609 L213.502858,177.318609 C198.620819,162.694345 180.86557,158.936536 170.692722,156.920534 L170.692722,156.920534 C162.376558,155.271959 153.428309,154.467968 144.359775,154.467968 L144.359775,154.467968 C106.499138,154.466658 66.4623664,168.471823 60.7620702,193.503454" id="Fill-28" fill="#FFE9AF" fill-rule="evenodd"></path>
                    <polygon id="Fill-31" fill="#BDBDBD" fill-rule="evenodd" points="111.742666 167.033018 194.954883 161.590232 194.666094 154.230699 81.704212 152.545459"></polygon>
                    <path d="M77.7175162,155.545107 L77.7175162,155.546154 C77.7175162,157.658531 79.0406495,159.545684 81.0273149,160.267443 L81.0273149,160.267443 L117.122464,174.408527 L117.286775,164.604545 L81.704212,152.545459 C81.4125409,152.461656 81.1206077,152.422111 80.8354881,152.422111 L80.8354881,152.422111 C79.168272,152.421849 77.7175162,153.772921 77.7175162,155.545107" id="Fill-34" fill="#BDBDBD" fill-rule="evenodd"></path>
                    <path d="M93.8447526,151.014392 C93.1516079,150.859879 97.2224245,142.75397 100.418228,143.689428 C103.613245,144.62541 119.243199,153.677254 120.663818,157.404422 L122.084699,161.132114 C122.084699,161.132114 115.266986,161.664267 111.03841,160.244581 C106.810096,158.824632 99.4826789,152.270662 93.8447526,151.014392" id="Fill-37" fill="#BDBDBD" fill-rule="evenodd"></path>
                    <path d="M246.646443,88.7334184 L124.238925,92.1732971 C122.194606,92.2309121 120.506426,93.7862558 120.283414,95.8177091 L120.283414,95.8177091 L112.321029,168.268861 C112.04613,170.768567 115.548279,174.493116 118.061944,174.37422 L118.061944,174.37422 L234.870583,167.20822 C236.790161,167.116822 238.388194,165.705254 238.712884,163.812601 L238.712884,163.812601 L253.374271,93.8378474 C253.805881,91.3258325 249.353245,88.732109 246.751529,88.732109 L246.751529,88.732109 C246.716151,88.732109 246.681297,88.732109 246.646443,88.7334184" id="Fill-39" fill="none"></path>
                    <path d="M249.316295,90.8465803 L126.908252,94.2859352 C124.864458,94.3430264 123.175753,95.8991558 122.953004,97.9298234 L122.953004,97.9298234 L114.990095,170.381499 C114.715719,172.881729 116.741169,175.035483 119.255096,174.916848 L119.255096,174.916848 L237.540435,169.320858 C239.460013,169.229722 241.057784,167.81763 241.38326,165.925762 L241.38326,165.925762 L253.467563,95.6304603 C253.89865,93.1231593 251.962037,90.8447471 249.435269,90.8447471 L249.435269,90.8447471 C249.395699,90.8447471 249.35639,90.8447471 249.316295,90.8465803" id="Fill-42" fill="#BDBDBD" fill-rule="evenodd"></path>
                    <path d="M192.410295,152.343545 C182.082046,147.968993 185.727541,139.626338 173.53134,129.231541 C157.441211,115.518118 141.041067,121.465298 135.299889,110.836112 C133.512388,107.525343 132.658078,102.374299 135.772381,94.037143 L126.908252,94.2859352 C124.864458,94.3430264 123.175753,95.8991558 122.953004,97.9300853 L114.990095,170.381499 C114.716243,172.881467 116.741431,175.035221 119.254834,174.916848 L237.540697,169.320858 C239.460013,169.229722 241.057784,167.818416 241.38326,165.925762 L243.050739,156.225488 C239.461848,154.229651 235.172998,152.414516 230.168992,151.399968 C212.815479,147.882571 204.301199,157.379883 192.410295,152.343545" id="Fill-45" fill="#BDBDBD" fill-rule="evenodd"></path>
                    <path d="M101.560908,9.3008453 C101.623802,16.8148917 100.784952,22.7741181 99.9914392,26.8553567 C99.0823583,31.5313395 98.4274742,32.7391598 97.5915076,33.7194009 C96.3331028,35.1951311 94.4261032,36.4328065 83.6515686,39.102739 C77.788272,40.5551613 77.0340677,40.5156164 76.9043488,41.0970044 C76.2727878,43.9334966 92.260976,53.6010353 108.778522,51.2712934 C118.88769,49.8453216 128.085419,44.0817244 127.520945,41.0548406 C126.952802,38.0088392 116.854641,39.6435345 113.844899,34.1326577 C111.751314,30.2991637 114.09831,24.8569011 116.872461,20.3495732 C114.185575,15.3187343 104.247269,14.3316842 101.560908,9.3008453" id="Fill-48" fill="#BDBDBD" fill-rule="evenodd"></path>
                    <path d="M99.6552182,4.57568025 C97.1418153,7.55935271 98.8132243,15.5523894 99.0323052,16.9678857 L99.0323052,16.9678857 C99.2807366,18.5695833 100.282062,19.3573378 101.044128,20.7170523 L101.044128,20.7170523 C102.099962,22.6034205 103.743593,25.5928544 106.401128,30.5686972 L106.401128,30.5686972 C106.997311,29.459608 107.816506,28.1077501 108.925799,26.7001104 L108.925799,26.7001104 C109.352692,26.1582673 111.049783,24.0498194 113.191325,22.4926425 L113.191325,22.4926425 C117.483319,19.370694 119.829004,21.1908049 122.774542,18.8555633 L122.774542,18.8555633 C125.882293,16.3917355 127.419004,11.0780592 125.639889,7.00336775 L125.639889,7.00336775 C124.109206,3.49723181 120.614918,2.14485012 118.523167,1.33404963 L118.523167,1.33404963 C116.29436,0.470871858 113.726711,0 111.160372,0 L111.160372,0 C106.747045,0 102.336863,1.39218843 99.6552182,4.57568025" id="Fill-51" fill="#BDBDBD" fill-rule="evenodd"></path>
                    <path d="M101.998126,25.8196219 C101.998126,25.8196219 104.351411,33.6254098 112.670196,35.2223934 C120.118422,36.6522935 125.46887,20.5174686 121.698635,15.8166067 C120.440492,14.2484305 117.440446,12.9523544 114.713728,13.0026366 C113.102854,13.0324917 112.431984,13.5232669 109.799607,13.520648 C107.370587,13.5182911 106.79432,13.0992727 105.957043,13.4978639 C104.909858,13.9970195 103.819432,15.6039548 104.002873,20.7754268 C102.97377,18.9980034 101.438107,18.0190718 100.103443,18.2704828 C99.8906515,18.3108133 99.2986614,18.5216319 98.8806781,18.9660532 C97.3680766,20.574298 98.4574537,23.4141948 101.998126,25.8196219" id="Fill-54" fill="#BDBDBD" fill-rule="evenodd"></path>
                    <path d="M118.322928,28.5377153 C118.322928,28.5377153 116.525731,28.9517578 113.832556,28.0870087 C113.701527,28.0443212 113.544554,28.0453688 113.509962,28.1100547 C113.379457,28.3530854 114.830213,29.9710199 116.564254,29.9377604 C117.795404,29.9136668 118.971261,29.0607026 118.888712,28.7446056 C118.853335,28.6110435 118.589966,28.5586662 118.322928,28.5377153" id="Fill-56" fill="#BDBDBD" fill-rule="evenodd"></path>
                </g>
            </g>
            <g id="Group-161" opacity="0.31943185" mask="url(#mask-2)">
                <g transform="translate(582.561248, 288.283288)">
                    <g id="Group-122" stroke-width="1" fill="none">
                        <path d="M8.59142651,501.320693 L537.635108,501.320693 L537.635108,31.7304338 C537.635108,18.9724056 527.257707,8.59324647 514.502381,8.59324647 L37.7950588,8.59324647 C21.6918006,8.59324647 8.59142651,21.6963956 8.59142651,37.8030651 L8.59142651,501.320693 Z M546.226534,509.91394 L0,509.91394 L0,37.8030651 C0,16.9584666 16.9544349,0 37.7950588,0 L514.502381,0 C531.995073,0 546.226534,14.2340364 546.226534,31.7304338 L546.226534,509.91394 Z" id="Fill-4" fill="#C8DBF4"></path>
                        <polygon id="Fill-6" fill="#C8DBF4" points="4.29544919 108.541098 541.930557 108.541098 541.930557 98.9846822 4.29544919 98.9846822"></polygon>
                        <polygon id="Fill-42" fill="#C8DBF4" points="391.627905 99.1995023 405.053962 99.1995023 405.053962 49.2274036 391.627905 49.2274036"></polygon>
                        <polygon id="Fill-43" fill="#C8DBF4" points="408.186679 99.1995023 419.8206 99.1995023 419.8206 44.8856593 408.186679 44.8856593"></polygon>
                        <polygon id="Fill-44" fill="#D2E3FC" points="437.96369 98.2921953 426.416031 99.7052541 419.820512 45.7937587 431.368611 44.3802596"></polygon>
                        <polygon id="Fill-45" fill="#C8DBF4" points="175.57428 175.941802 189.000337 175.941802 189.000337 125.969704 175.57428 125.969704"></polygon>
                        <polygon id="Fill-46" fill="#C8DBF4" points="192.132614 175.941802 203.766534 175.941802 203.766534 121.627959 192.132614 121.627959"></polygon>
                        <polygon id="Fill-47" fill="#D2E3FC" points="221.909712 175.034275 210.361613 176.447334 203.766534 122.535839 215.314633 121.12278"></polygon>
                        <polygon id="Fill-48" fill="#C8DBF4" points="16.498875 99.1995023 29.9244918 99.1995023 29.9244918 49.2274036 16.498875 49.2274036"></polygon>
                        <polygon id="Fill-49" fill="#C8DBF4" points="33.057209 99.1995023 44.6911299 99.1995023 44.6911299 44.8856593 33.057209 44.8856593"></polygon>
                        <polygon id="Fill-50" fill="#D2E3FC" points="62.8339112 98.2921953 51.2862523 99.7052541 44.6911739 45.7937587 56.2388328 44.3802596"></polygon>
                        <polygon id="Fill-51" fill="#95C0F4" points="448.510622 99.1995023 503.407113 99.1995023 503.407113 89.426946 448.510622 89.426946"></polygon>
                        <polygon id="Fill-52" fill="#B7D3F3" points="455.22365 89.426946 510.120141 89.426946 510.120141 82.7063326 455.22365 82.7063326"></polygon>
                        <polygon id="Fill-53" fill="#D2E3FC" points="452.090493 82.7067728 504.721727 82.7067728 504.721727 75.9861594 452.090493 75.9861594"></polygon>
                        <polygon id="Fill-54" fill="#C8DBF4" points="458.464635 75.9861594 505.996292 75.9861594 505.996292 70.8533663 458.464635 70.8533663"></polygon>
                        <polygon id="Fill-55" fill="#D2E3FC" points="185.011161 99.1995023 239.908093 99.1995023 239.908093 89.426946 185.011161 89.426946"></polygon>
                        <polygon id="Fill-56" fill="#B7D3F3" points="191.72419 89.426946 246.620681 89.426946 246.620681 82.7063326 191.72419 82.7063326"></polygon>
                        <polygon id="Fill-57" fill="#D2E3FC" points="188.591032 82.7067728 241.222267 82.7067728 241.222267 75.9861594 188.591032 75.9861594"></polygon>
                        <polygon id="Fill-58" fill="#C8DBF4" points="194.965175 75.9861594 242.496831 75.9861594 242.496831 70.8533663 194.965175 70.8533663"></polygon>
                        <polygon id="Fill-59" fill="#B7D3F3" points="193.53173 70.8533663 248.428661 70.8533663 248.428661 64.132753 193.53173 64.132753"></polygon>
                        <polygon id="Fill-60" fill="#D2E3FC" points="190.399453 64.132753 243.030247 64.132753 243.030247 57.4121396 190.399453 57.4121396"></polygon>
                        <polygon id="Fill-61" fill="#C8DBF4" points="196.772715 57.4125798 244.304371 57.4125798 244.304371 52.2797867 196.772715 52.2797867"></polygon>
                        <polygon id="Fill-62" fill="#C1D9F4" points="271.701344 98.9846822 281.059446 98.9846822 281.059446 44.8860995 271.701344 44.8860995"></polygon>
                        <polygon id="Fill-63" fill="#C1D9F4" points="156.627458 98.9846822 165.985559 98.9846822 165.985559 42.4073038 156.627458 42.4073038"></polygon>
                        <polygon id="Fill-64" fill="#C1D9F4" points="128.278963 98.9846822 137.637065 98.9846822 137.637065 44.8860995 128.278963 44.8860995"></polygon>
                        <polygon id="Fill-65" fill="#E4EEF9" points="281.059446 98.9846822 292.886576 98.9846822 292.886576 40.42594 281.059446 40.42594"></polygon>
                        <polygon id="Fill-66" fill="#E4EEF9" points="114.503017 98.9846822 126.329707 98.9846822 126.329707 40.42594 114.503017 40.42594"></polygon>
                        <polygon id="Fill-67" fill="#B7D3F3" points="292.886576 98.9846822 304.713265 98.9846822 304.713265 43.2168412 292.886576 43.2168412"></polygon>
                        <polygon id="Fill-68" fill="#B7D3F3" points="183.299962 98.9845061 171.649317 96.9503177 182.530206 34.6075713 194.180851 36.6417597"></polygon>
                        <polygon id="Fill-69" fill="#D2E3FC" points="356.838371 175.93608 411.734862 175.93608 411.734862 166.163523 356.838371 166.163523"></polygon>
                        <polygon id="Fill-70" fill="#B7D3F3" points="363.5514 166.163523 418.447891 166.163523 418.447891 159.44291 363.5514 159.44291"></polygon>
                        <polygon id="Fill-71" fill="#D2E3FC" points="360.418242 159.44291 413.049477 159.44291 413.049477 152.722297 360.418242 152.722297"></polygon>
                        <polygon id="Fill-72" fill="#C8DBF4" points="366.792385 152.722297 414.324041 152.722297 414.324041 147.589503 366.792385 147.589503"></polygon>
                        <polygon id="Fill-73" fill="#B7D3F3" points="365.35894 147.589503 420.255431 147.589503 420.255431 140.86889 365.35894 140.86889"></polygon>
                        <polygon id="Fill-74" fill="#D2E3FC" points="362.226222 140.86933 414.857457 140.86933 414.857457 134.148717 362.226222 134.148717"></polygon>
                        <polygon id="Fill-75" fill="#C8DBF4" points="368.599925 134.148717 416.131581 134.148717 416.131581 129.015924 368.599925 129.015924"></polygon>
                        <polygon id="Fill-76" fill="#B7D3F3" points="355.127216 175.720599 343.476571 173.686411 354.35746 111.343664 366.008105 113.377853"></polygon>
                        <polygon id="Fill-77" fill="#C8DBF4" points="304.712825 98.9846822 316.539955 98.9846822 316.539955 51.7687084 304.712825 51.7687084"></polygon>
                        <polygon id="Fill-78" fill="#C8DBF4" points="99.0282386 98.9846822 110.854929 98.9846822 110.854929 51.7687084 99.0282386 51.7687084"></polygon>
                        <polygon id="Fill-79" fill="#95C0F4" points="316.539955 98.9846822 328.366645 98.9846822 328.366645 49.2278438 316.539955 49.2278438"></polygon>
                        <polygon id="Fill-80" fill="#D2E3FC" points="330.257806 98.9846822 342.084936 98.9846822 342.084936 49.2278438 330.257806 49.2278438"></polygon>
                        <polygon id="Fill-81" fill="#D2E3FC" points="85.5577304 98.9846822 97.3844203 98.9846822 97.3844203 49.2278438 85.5577304 49.2278438"></polygon>
                        <polygon id="Fill-82" fill="#E4EEF9" points="312.795922 175.93608 324.622612 175.93608 324.622612 117.377337 312.795922 117.377337"></polygon>
                        <polygon id="Fill-83" fill="#C8DBF4" points="297.321584 175.93608 309.148714 175.93608 309.148714 128.720106 297.321584 128.720106"></polygon>
                        <polygon id="Fill-84" fill="#D2E3FC" points="283.850636 175.93608 295.677766 175.93608 295.677766 126.179241 283.850636 126.179241"></polygon>
                        <polygon id="Fill-85" fill="#D2E3FC" points="244.324617 175.93608 256.151747 175.93608 256.151747 126.179241 244.324617 126.179241"></polygon>
                        <polygon id="Fill-86" fill="#D2E3FC" points="227.818656 175.93608 239.645786 175.93608 239.645786 126.179241 227.818656 126.179241"></polygon>
                        <polygon id="Fill-87" fill="#E4EEF9" points="41.6160673 175.93608 53.4431973 175.93608 53.4431973 117.377337 41.6160673 117.377337"></polygon>
                        <polygon id="Fill-88" fill="#E4EEF9" points="72.3150241 175.000732 60.5759165 176.437561 53.4650268 118.311981 65.2045745 116.875151"></polygon>
                        <polygon id="Fill-89" fill="#C8DBF4" points="26.1417291 175.93608 37.9688591 175.93608 37.9688591 128.720106 26.1417291 128.720106"></polygon>
                        <polygon id="Fill-90" fill="#D2E3FC" points="12.6707807 175.93608 24.4979107 175.93608 24.4979107 126.179241 12.6707807 126.179241"></polygon>
                        <polygon id="Fill-91" fill="#AFCDFB" points="344.295179 98.9846822 356.122309 98.9846822 356.122309 44.8860995 344.295179 44.8860995"></polygon>
                        <polygon id="Fill-99" fill="#AFCDFB" points="432.379196 175.93608 444.205886 175.93608 444.205886 121.837497 432.379196 121.837497"></polygon>
                        <polygon id="Fill-100" fill="#AFCDFB" points="445.261275 175.93608 457.087965 175.93608 457.087965 121.837497 445.261275 121.837497"></polygon>
                        <polygon id="Fill-101" fill="#AFCDFB" points="138.83901 98.9846822 150.66614 98.9846822 150.66614 44.8860995 138.83901 44.8860995"></polygon>
                    </g>
                    <path d="M639.618787,18.7498378 C639.618787,17.8227656 640.370058,17.0713353 641.296934,17.0713353 C642.22381,17.0713353 642.975081,17.8227656 642.975081,18.7498378 C642.975081,19.6769101 642.22381,20.4283404 641.296934,20.4283404 C640.370058,20.4283404 639.618787,19.6769101 639.618787,18.7498378" id="Fill-127" fill="#B7D3F3"></path>
                    <path d="M653.160417,21.122368 C653.610652,20.3119501 654.632592,20.0200941 655.442838,20.470424 C656.252644,20.920754 656.544438,21.9429106 656.094204,22.7533284 C655.644409,23.563306 654.622469,23.8551621 653.812223,23.4048322 C653.002417,22.9545022 652.710623,21.9327858 653.160417,21.122368" id="Fill-129" fill="#B7D3F3"></path>
                    <path d="M664.762342,30.3415423 C665.54134,29.8388279 666.579564,30.0628924 667.082172,30.8420557 C667.58478,31.6212189 667.360323,32.6601033 666.581765,33.1623775 C665.802767,33.6650919 664.764102,33.4410274 664.261494,32.6618641 C663.759326,31.8827008 663.983343,30.8442567 664.762342,30.3415423" id="Fill-131" fill="#B7D3F3"></path>
                    <path d="M670.508708,44.610575 C671.435584,44.610575 672.186855,45.3620054 672.186855,46.2890776 C672.186855,47.2161498 671.435584,47.9675802 670.508708,47.9675802 C669.582272,47.9675802 668.830561,47.2161498 668.830561,46.2890776 C668.830561,45.3620054 669.582272,44.610575 670.508708,44.610575" id="Fill-133" fill="#B7D3F3"></path>
                    <path d="M667.574481,61.1700837 C668.229808,61.8255493 668.229808,62.8886449 667.574481,63.5441105 C666.919155,64.1995761 665.856724,64.1995761 665.200957,63.5441105 C664.545631,62.8886449 664.545631,61.8255493 665.200957,61.1700837 C665.856724,60.5146181 666.919155,60.5146181 667.574481,61.1700837" id="Fill-135" fill="#B7D3F3"></path>
                    <path d="M657.036307,71.738443 C657.691194,72.3939086 657.691194,73.456564 657.036307,74.1124698 C656.380541,74.7679355 655.31811,74.7679355 654.662343,74.1124698 C654.007017,73.456564 654.007017,72.3939086 654.662343,71.738443 C655.31811,71.0829774 656.380541,71.0829774 657.036307,71.738443" id="Fill-137" fill="#B7D3F3"></path>
                    <path d="M639.618787,77.1855426 C639.618787,76.2589106 640.370058,75.50704 641.296934,75.50704 C642.22381,75.50704 642.975081,76.2589106 642.975081,77.1855426 C642.975081,78.1126149 642.22381,78.8640452 641.296934,78.8640452 C640.370058,78.8640452 639.618787,78.1126149 639.618787,77.1855426" id="Fill-139" fill="#B7D3F3"></path>
                    <path d="M629.379757,21.122368 C628.929962,20.3119501 627.908022,20.0200941 627.097776,20.470424 C626.28797,20.920754 625.996176,21.9429106 626.44597,22.7533284 C626.896205,23.563306 627.918145,23.8551621 628.728391,23.4048322 C629.538197,22.9545022 629.829991,21.9327858 629.379757,21.122368" id="Fill-141" fill="#B7D3F3"></path>
                    <path d="M617.778228,30.3415423 C616.99923,29.8388279 615.960566,30.0628924 615.458398,30.8420557 C614.95579,31.6212189 615.180247,32.6601033 615.958805,33.1623775 C616.737804,33.6650919 617.776468,33.4410274 618.279076,32.6618641 C618.781244,31.8827008 618.557667,30.8442567 617.778228,30.3415423" id="Fill-143" fill="#B7D3F3"></path>
                    <path d="M612.031862,44.610575 C611.104986,44.610575 610.353715,45.3620054 610.353715,46.2890776 C610.353715,47.2161498 611.104986,47.9675802 612.031862,47.9675802 C612.958738,47.9675802 613.710009,47.2161498 613.710009,46.2890776 C613.710009,45.3620054 612.958738,44.610575 612.031862,44.610575" id="Fill-145" fill="#B7D3F3"></path>
                    <path d="M614.966089,61.1700837 C614.310762,61.8255493 614.310762,62.8886449 614.966089,63.5441105 C615.620975,64.1995761 616.683846,64.1995761 617.339613,63.5441105 C617.994499,62.8886449 617.994499,61.8255493 617.339613,61.1700837 C616.683846,60.5146181 615.620975,60.5146181 614.966089,61.1700837" id="Fill-147" fill="#B7D3F3"></path>
                    <path d="M625.504263,71.738443 C624.848936,72.3939086 624.848936,73.456564 625.504263,74.1124698 C626.159589,74.7679355 627.22202,74.7679355 627.878227,74.1124698 C628.533113,73.456564 628.533113,72.3939086 627.878227,71.738443 C627.22202,71.0829774 626.159589,71.0829774 625.504263,71.738443" id="Fill-149" fill="#B7D3F3"></path>
                    <path d="M640.844587,46.2890776 C640.844587,45.3620054 641.595858,44.610575 642.522734,44.610575 C643.44961,44.610575 644.200881,45.3620054 644.200881,46.2890776 C644.200881,47.2161498 643.44961,47.9675802 642.522734,47.9675802 C641.595858,47.9675802 640.844587,47.2161498 640.844587,46.2890776" id="Fill-151" fill="#B7D3F3"></path>
                    <polygon id="Fill-153" fill="#B7D3F3" points="642.293699 46.2890336 642.751416 46.2890336 642.751416 25.3189766 642.293699 25.3189766"></polygon>
                    <polygon id="Fill-155" fill="#B7D3F3" points="642.73566 46.8002439 641.886684 45.7186597 653.001713 36.9915908 653.850689 38.0731751"></polygon>
                </g>
            </g>
        </g>
    </g>
</svg>