<svg xmlns="http://www.w3.org/2000/svg" xmlns:xlink="http://www.w3.org/1999/xlink" width="66" height="24" version="1.1" viewBox="0 0 66 24"><title>Alsafa News/media/icons/system/audio while playing</title><g id="Symbols" fill="none" fill-rule="evenodd" stroke="none" stroke-width="1"><g id="Group"><g id="graphic_eq-24px" transform="translate(42.000000, 4.000000)"><polygon id="Path" points="0 0 24 0 24 16 0 16"/><path id="Shape" fill="#262626" d="M7,11.4 L9,11.4 L9,3.6 L7,3.6 L7,11.4 Z M11,14 L13,14 L13,1 L11,1 L11,14 Z M3,8.8 L5,8.8 L5,6.2 L3,6.2 L3,8.8 Z M15,11.4 L17,11.4 L17,3.6 L15,3.6 L15,11.4 Z M19,6.2 L19,8.8 L21,8.8 L21,6.2 L19,6.2 Z"/></g><g id="graphic_eq-24px-copy" transform="translate(21.000000, 4.000000)"><polygon id="Path" points="0 0 24 0 24 16 0 16"/><path id="Shape" fill="#262626" d="M7,11.4 L9,11.4 L9,3.6 L7,3.6 L7,11.4 Z M11,14 L13,14 L13,1 L11,1 L11,14 Z M3,11.5 L5,11.5 L5,3.5 L3,3.5 L3,11.5 Z M15,11.4 L17,11.4 L17,3.6 L15,3.6 L15,11.4 Z M19,3.5 L19,11.5 L21,11.5 L21,3.5 L19,3.5 Z"/></g><g id="graphic_eq-24px-copy-2"><polygon id="Path" points="0 0 24 0 24 24 0 24"/><path id="Shape" fill="#262626" d="M7,16 L9,16 L9,8 L7,8 L7,16 Z M11,17 L13,17 L13,7 L11,7 L11,17 Z M3,13 L5,13 L5,10 L3,10 L3,13 Z M15,16 L17,16 L17,8 L15,8 L15,16 Z M19,10 L19,13 L21,13 L21,10 L19,10 Z"/></g></g></g></svg>