<?xml version="1.0" encoding="UTF-8"?>
<svg width="24px" height="24px" viewBox="0 0 24 24" version="1.1" xmlns="http://www.w3.org/2000/svg" xmlns:xlink="http://www.w3.org/1999/xlink">
    <title>Alsafa News/media/icons/system/facebook</title>
    <g id="Symbols" stroke="none" stroke-width="1" fill="none" fill-rule="evenodd">
        <g id="Alsafa-News/media/icons/system/facebook" fill="#262626">
            <path d="M9.19844358,12.5730108 L9.19844358,21.7637884 C9.19844358,21.8926311 9.32003891,22 9.47081712,22 L13.3375486,22 C13.483463,22 13.6050584,21.8926311 13.6050584,21.7637884 L13.6050584,12.4269892 L16.4066148,12.4269892 C16.5476654,12.4269892 16.6643969,12.3282098 16.6789883,12.2036618 L16.9464981,9.3948915 C16.9610895,9.25316456 16.8346304,9.13291139 16.6741245,9.13291139 L13.6050584,9.13291139 L13.6050584,7.13584991 C13.6050584,6.66772152 14.0330739,6.289783 14.5680934,6.289783 L16.7227626,6.289783 C16.8735409,6.289783 17,6.1824141 17,6.04927667 L17,3.23621157 C17,3.1073689 16.8735409,3 16.7227626,3 L13.0797665,3 C10.9348249,3 9.19844358,4.52893309 9.19844358,6.41862568 L9.19844358,9.13291139 L7.27237354,9.13291139 C7.11673152,9.13291139 7,9.24028029 7,9.37341772 L7,12.1821881 C7,12.3153255 7.11673152,12.4269892 7.27237354,12.4269892 L9.19844358,12.4269892 L9.19844358,12.5730108 Z" id="Fill-438"></path>
        </g>
    </g>
</svg>