<?xml version="1.0" encoding="UTF-8"?>
<svg width="24px" height="24px" viewBox="0 0 24 24" version="1.1" xmlns="http://www.w3.org/2000/svg" xmlns:xlink="http://www.w3.org/1999/xlink">
    <title>Alsafa News/media/icons/system/instagram</title>
    <defs>
        <filter id="filter-1">
            <feColorMatrix in="SourceGraphic" type="matrix" values="0 0 0 0 0.149020 0 0 0 0 0.149020 0 0 0 0 0.149020 0 0 0 1.000000 0"></feColorMatrix>
        </filter>
    </defs>
    <g id="Symbols" stroke="none" stroke-width="1" fill="none" fill-rule="evenodd">
        <g id="Group" filter="url(#filter-1)">
            <g transform="translate(3.000000, 3.000000)">
                <path d="M9.50197282,5 C7.02016659,5 5,6.79727951 5,9.00175516 C5,11.2097411 7.02016659,13 9.50197282,13 C11.9798334,13 14,11.2097411 14,9.00175516 C14,6.79727951 11.9798334,5 9.50197282,5 M9.50185058,11.4 C8.01028101,11.4 6.8,10.3216438 6.8,9 C6.8,7.67506849 8.01028101,6.6 9.50185058,6.6 C10.989719,6.6 12.2,7.67506849 12.2,9 C12.2,10.3216438 10.989719,11.4 9.50185058,11.4" id="Fill-444" fill="#FFFFFF"></path>
                <path d="M13.2905595,19 L5.70533593,19 C2.56124433,19 0,16.4382022 0,13.2893258 L0,5.70656871 C0,2.55769231 2.56124433,0 5.70533593,0 L13.2905595,0 C16.4387557,0 19,2.55769231 19,5.70656871 L19,13.2893258 C19,16.4382022 16.4387557,19 13.2905595,19 L13.2905595,19 Z M5.67775412,1.72727273 C3.50188688,1.72727273 1.72727273,3.49455417 1.72727273,5.67571885 L1.72727273,13.3201423 C1.72727273,15.501307 3.50188688,17.2727273 5.67775412,17.2727273 L13.3222459,17.2727273 C15.4981131,17.2727273 17.2727273,15.501307 17.2727273,13.3201423 L17.2727273,5.67571885 C17.2727273,3.49455417 15.4981131,1.72727273 13.3222459,1.72727273 L5.67775412,1.72727273 Z" id="Fill-446" fill="#FFFFFF"></path>
                <path d="M14.5,3.1425 C13.75,3.1425 13.145,3.7475 13.145,4.4975 C13.145,5.2475 13.75,5.8575 14.5,5.8575 C15.245,5.8575 15.855,5.2475 15.855,4.4975 C15.855,3.7475 15.245,3.1425 14.5,3.1425" id="Fill-442" fill="#FFFFFF"></path>
            </g>
        </g>
    </g>
</svg>