<?xml version="1.0" encoding="UTF-8"?>
<svg width="24px" height="24px" viewBox="0 0 24 24" version="1.1" xmlns="http://www.w3.org/2000/svg" xmlns:xlink="http://www.w3.org/1999/xlink">
    <title>Alsafa News/media/icons/system/log out</title>
    <g id="Symbols" stroke="none" stroke-width="1" fill="none" fill-rule="evenodd">
        <g id="logout_black_24dp-(1)">
            <polygon id="Path" points="0 0 24 0 24 24 0 24"></polygon>
            <g id="Group" transform="translate(3.000000, 3.000000)" fill="#262626">
                <path d="M2,2 L8,2 C8.55,2 9,1.55 9,1 L9,1 C9,0.45 8.55,0 8,0 L2,0 C0.9,0 0,0.9 0,2 L0,16 C0,17.1 0.9,18 2,18 L8,18 C8.55,18 9,17.55 9,17 L9,17 C9,16.45 8.55,16 8,16 L2,16 L2,2 Z" id="Path"></path>
                <path d="M17.65,8.65 L14.86,5.86 C14.54,5.54 14,5.76 14,6.21 L14,8 L7,8 C6.45,8 6,8.45 6,9 L6,9 C6,9.55 6.45,10 7,10 L14,10 L14,11.79 C14,12.24 14.54,12.46 14.85,12.14 L17.64,9.35 C17.84,9.16 17.84,8.84 17.65,8.65 Z" id="Path"></path>
            </g>
        </g>
    </g>
</svg>