<?xml version="1.0" encoding="UTF-8"?>
<svg width="472px" height="485px" viewBox="0 0 472 485" version="1.1" xmlns="http://www.w3.org/2000/svg" xmlns:xlink="http://www.w3.org/1999/xlink">
    <title>Alsafa News/media/icons/graphical/modal subscription</title>
    <defs>
        <linearGradient x1="50%" y1="0%" x2="50%" y2="100%" id="linearGradient-1">
            <stop stop-color="#E63142" offset="0%"></stop>
            <stop stop-color="#C8161F" offset="100%"></stop>
        </linearGradient>
        <path d="M135.427928,0.503461179 C114.946233,3.6201936 94.9667008,21.9008785 84.3061949,36.728873 L84.3061949,36.728873 C75.6182013,48.8138447 72.6608596,59.2440884 61.6533729,62.4326758 L61.6533729,62.4326758 C55.6074424,64.1840038 50.9657617,62.6406272 46.4377335,61.0972506 L46.4377335,61.0972506 C42.5408964,59.7691219 38.7280703,58.440676 34.177058,59.2126815 L34.177058,59.2126815 C14.2243142,62.5976411 5.3334263,102.072868 3.89652313,108.452739 L3.89652313,108.452739 C-12.0874197,179.422048 25.1977209,251.034246 41.8377412,282.075784 L41.8377412,282.075784 C55.595871,307.741994 78.4845576,344.193757 115.556342,382.113235 L115.556342,382.113235 C107.185371,359.758861 98.3409266,325.800452 105.623878,287.562305 L105.623878,287.562305 C115.175282,237.41367 144.073758,223.964563 178.905622,148.281055 L178.905622,148.281055 C200.929314,100.427181 215.817628,66.8090129 200.720555,37.4334649 L200.720555,37.4334649 C189.962247,16.5000122 165.146541,0 142.212679,0 L142.212679,0 C139.926791,0 137.660557,0.163854883 135.427928,0.503461179" id="path-2"></path>
        <linearGradient x1="50%" y1="0%" x2="50%" y2="100%" id="linearGradient-4">
            <stop stop-color="#E63142" offset="0%"></stop>
            <stop stop-color="#C8161F" offset="100%"></stop>
        </linearGradient>
        <path d="M25.9173315,55.3782076 C1.78132106,77.2597345 15.3246684,117.346443 19.9525586,131.044267 L19.9525586,131.044267 C27.7080314,154.000606 39.1328778,163.283707 33.8508123,181.589136 L33.8508123,181.589136 C29.3926874,197.037812 18.8474192,198.771216 15.7160323,210.380644 L15.7160323,210.380644 C6.82609548,243.338475 79.0000058,276.872733 90.6835423,282.301041 L90.6835423,282.301041 C136.463927,303.572196 184.429387,309.100911 222.094796,309.219718 L222.094796,309.219718 C189.875036,273.029678 174.449211,240.26346 166.319652,216.495302 L166.319652,216.495302 C155.366059,184.469842 159.296025,173.565006 144.864699,128.838967 L144.864699,128.838967 C128.585133,78.3841945 118.451359,48.7404194 88.1942839,41.3547359 L88.1942839,41.3547359 C83.2714045,40.1530276 77.9734879,39.5789804 72.5627113,39.5789804 L72.5627113,39.5789804 C55.3013275,39.5789804 36.8985053,45.4230321 25.9173315,55.3782076 L25.9173315,55.3782076 Z" id="path-5"></path>
        <linearGradient x1="50%" y1="0%" x2="50%" y2="100%" id="linearGradient-7">
            <stop stop-color="#E63142" offset="0%"></stop>
            <stop stop-color="#C8161F" offset="100%"></stop>
        </linearGradient>
        <path d="M3.17475551,12.3865726 C-0.482729719,23.5223598 9.52280824,37.9425412 21.1706798,43.6376484 L21.1706798,43.6376484 C29.1767586,47.5520828 35.8079122,46.2926368 42.7993615,45.0331907 L42.7993615,45.0331907 C49.8217205,43.768193 57.2075454,42.5031952 66.714883,46.4810778 L66.714883,46.4810778 C77.7402814,51.0942352 77.5251818,56.8611974 89.0671679,62.0076366 L89.0671679,62.0076366 C102.469916,67.9836605 116.324103,66.2553325 126.056368,63.7954472 L126.056368,63.7954472 C126.152902,59.9660333 126.376085,37.3887974 109.765389,23.5559873 L109.765389,23.5559873 C95.8595273,11.9755871 77.7128589,12.8169098 73.5094615,13.0118542 L73.5094615,13.0118542 C56.5831702,13.7965494 52.3900759,21.6433424 41.9765304,18.070735 L41.9765304,18.070735 C29.6106035,13.8282735 28.7492542,0.439283361 18.8730613,0.121725302 L18.8730613,0.121725302 C18.7549705,0.117918412 18.6357702,0.116014967 18.5176794,0.116014967 L18.5176794,0.116014967 C11.8243895,0.116014967 5.22224346,6.15231464 3.17475551,12.3865726" id="path-8"></path>
        <linearGradient x1="50%" y1="0%" x2="50%" y2="100%" id="linearGradient-10">
            <stop stop-color="#FFF6D8" offset="0%"></stop>
            <stop stop-color="#FFE9AF" offset="100%"></stop>
        </linearGradient>
        <linearGradient x1="50%" y1="0%" x2="50%" y2="100%" id="linearGradient-11">
            <stop stop-color="#FFE9AF" offset="0%"></stop>
            <stop stop-color="#FFF6D8" offset="100%"></stop>
        </linearGradient>
    </defs>
    <g id="Symbols" stroke="none" stroke-width="1" fill="none" fill-rule="evenodd">
        <g id="Group-67" transform="translate(2.000000, 12.000000)">
            <path d="M256.110407,0.661730579 C120.885218,-10.0605332 28.0592128,111.642562 9.38628759,211.624337 C6.40612031,227.580757 -9.84174347,314.578024 46.7743019,386.40198 C106.794215,462.544059 202.494502,463.013734 229.708639,461.741916 C326.836477,457.202517 448.628009,388.541769 465.868311,263.292715 C483.536117,134.938666 386.771111,11.0220226 256.110407,0.661730579" id="Fill-1" fill="#D8F1F8"></path>
            <g id="Group-14" transform="translate(110.084030, 7.874216)">
                <mask id="mask-3" fill="white">
                    <use xlink:href="#path-2"></use>
                </mask>
                <use id="Clip-11" fill="url(#linearGradient-1)" xlink:href="#path-2"></use>
                <path d="M128.724225,399.521781 C106.6403,375.752988 89.3270827,351.862058 77.2662898,328.512975 C59.4201585,293.962436 53.6725458,261.565011 60.1844991,232.219918 C65.2773023,209.268338 78.0914986,187.984334 94.3144761,161.037582 C107.766204,138.694787 119.302642,124.087433 129.481591,111.199525 C142.682872,94.4847408 153.110049,81.2824469 161.45661,58.8597072 C169.936478,36.0818164 173.427369,10.9893367 171.83243,-15.7202782 L172.940422,-15.7864229 C174.544555,11.0786399 171.030998,36.3235539 162.497394,59.2475341 C154.089172,81.8341287 143.614283,95.0971742 130.352768,111.888572 C120.194426,124.750784 108.680813,139.328634 95.2676034,161.607664 C78.462256,189.52089 66.3218905,209.686303 61.268715,232.460704 C54.8147769,261.545025 60.5287852,293.689768 78.2523873,328.002852 C90.2670536,351.262473 107.52178,375.070286 129.537387,398.765003 L128.724225,399.521781 Z" id="Fill-7" fill="#FFFFFF" mask="url(#mask-3)"></path>
                <path d="M105.635386,148.585844 C104.674808,148.585844 104.148869,148.563955 104.118593,148.562527 L103.49184,148.532706 L103.597567,147.914087 C111.851399,99.5316896 102.331697,61.9968663 92.8922025,39.0287896 C82.6612618,14.1360129 70.3175265,0.510043926 70.1940464,0.375533819 L71.0121222,-0.37585106 C71.1367119,-0.239913369 83.5909294,13.4986761 93.898431,38.5568939 C103.363922,61.5681153 112.911204,99.1064283 104.798923,147.468839 C108.240833,147.526419 125.348619,147.385881 146.031148,140.029859 C159.563241,135.217158 171.956274,128.301308 182.866434,119.474558 C196.502986,108.441557 207.851906,94.3717677 216.596963,77.6560317 L217.580366,78.1713894 C208.759382,95.0321044 197.307113,109.225459 183.540899,120.357439 C172.526596,129.264292 160.016425,136.240418 146.358791,141.092616 C126.898699,148.005928 110.560009,148.585844 105.635386,148.585844" id="Fill-10" fill="#FFFFFF" mask="url(#mask-3)"></path>
                <path d="M82.7871969,179.676068 L82.4901471,179.402606 C72.8445878,170.515898 64.8830506,155.543242 58.8269753,134.900382 C53.9955568,118.432093 50.3534472,98.3260049 48.002252,75.1404597 C44.0009561,35.6847432 45.1447723,0.499246777 45.1572946,0.148378432 L46.2663968,0.18644733 C46.2545085,0.536681194 45.1133871,35.6579364 49.1081839,75.0405288 C52.7713756,111.155224 61.6177218,158.303713 82.9487197,178.312408 C86.192808,176.518729 111.070333,162.974925 138.55711,153.943396 C168.011802,144.263903 217.546205,160.365302 218.043455,160.529157 L217.696632,161.5843 C217.203187,161.422031 168.012912,145.434046 138.90314,154.999174 C109.67385,164.603322 83.4009519,179.330117 83.1384575,179.477792 L82.7871969,179.676068 Z" id="Fill-13" fill="#FFFFFF" mask="url(#mask-3)"></path>
            </g>
            <path d="M181.311902,329.717692 L180.384295,329.113665 C180.168561,328.973286 158.524821,314.767559 133.611472,289.398287 C110.613889,265.979728 80.0359868,227.979196 64.9660191,179.937039 L35.8567227,87.1385481 L36.9158939,86.8060797 L66.0253488,179.604412 C81.0258887,227.425135 111.478091,265.270854 134.382946,288.598682 C156.313908,310.934339 175.693317,324.583942 180.069967,327.564578 C179.333208,312.619363 183.008763,299.210704 191.003429,287.695338 C197.548511,278.267576 206.983092,270.089583 219.045312,263.388664 C239.542541,252.001146 260.846434,248.782738 261.059473,248.751807 L261.219886,249.850888 C261.009066,249.881819 239.879695,253.077386 219.558254,264.37449 C207.652643,270.992768 198.348675,279.056712 191.905992,288.34251 C183.865199,299.930524 180.277458,313.479403 181.241364,328.612901 L181.311902,329.717692 Z" id="Fill-16" fill="#FFFFFF"></path>
            <g id="Group-13" transform="translate(0.000000, 74.498421)">
                <mask id="mask-6" fill="white">
                    <use xlink:href="#path-5"></use>
                </mask>
                <use id="Clip-27" fill="url(#linearGradient-4)" xlink:href="#path-5"></use>
                <path d="M318.851544,330.41123 C299.90915,330.41123 281.372386,328.142482 263.356013,323.603083 C212.68461,310.836361 168.942203,279.96994 133.34362,231.862114 C96.3315941,181.84323 77.3914192,125.701916 68.0204012,87.413011 C61.4952916,60.7516167 63.0897548,31.3414894 72.7606758,-2.84217094e-14 L73.8211151,0.327551145 C64.2107453,31.4742547 62.62183,60.6851548 69.0992278,87.1487494 C78.4459936,125.338358 97.3335428,181.330569 134.235879,231.200826 C169.677377,279.097051 213.211025,309.823094 263.626909,322.525733 C301.470484,332.060565 341.639259,331.5276 383.017473,320.941433 L383.292807,322.017672 C361.424615,327.612373 339.888187,330.41123 318.851544,330.41123" id="Fill-23" fill="#FFFFFF" mask="url(#mask-6)"></path>
                <path d="M94.0623809,162.931474 L93.6461307,162.656109 C13.0440264,109.348865 14.4666636,48.9931651 16.8221386,31.7646094 C16.8643026,31.4559341 16.9045644,31.1639139 16.9061495,31.0939623 L18.0165198,31.0968174 C18.0165198,31.2203827 17.9919506,31.4035893 17.9220472,31.9151401 C15.592568,48.9511307 14.2036937,108.569246 93.836344,161.449325 C95.65621,159.147901 105.062576,146.84102 112.89033,128.883445 C120.873108,110.568974 128.801199,82.4573129 121.233086,52.5389657 L122.309852,52.2661386 C129.957538,82.5010921 121.954629,110.877332 113.894973,129.358037 C105.168303,149.366257 94.4873491,162.416909 94.3805127,162.546185 L94.0623809,162.931474 Z" id="Fill-26" fill="#FFFFFF" mask="url(#mask-6)"></path>
                <path d="M99.2721762,212.299136 C88.2735662,212.299136 77.7904343,211.344241 67.9107541,209.435562 C53.3044314,206.613229 39.9795124,201.711699 28.305962,194.86707 C17.9112793,188.772081 10.776853,182.231686 6.62211843,177.818231 C2.10724663,173.022343 0.0840108856,169.713839 -5.68434189e-14,169.575522 L0.949164496,168.999095 C1.03000516,169.132019 9.24151443,182.41854 28.9298617,193.94501 C61.7419775,213.154734 100.747915,212.855259 127.801956,209.186369 C129.590595,205.338079 149.55919,160.786999 145.646502,100.721574 L141.514593,37.2824521 L142.622586,37.2102799 L146.754653,100.649561 C150.848837,163.50845 128.897109,209.481879 128.674877,209.939023 L128.544739,210.206298 L128.250859,210.246429 C118.258953,211.615165 108.581058,212.299136 99.2721762,212.299136" id="Fill-29" fill="#FFFFFF" mask="url(#mask-6)"></path>
                <path d="M163.311704,292.596398 C157.639542,285.183114 151.438588,278.023465 144.881618,271.316042 C131.787808,257.921342 125.214986,251.198374 117.309245,248.420931 C107.061978,244.820723 99.0070772,247.74838 91.2189511,250.580548 C84.1209824,253.161143 77.4180233,255.598822 69.3057419,253.398122 C56.5143713,249.926873 46.261556,236.00587 38.8322991,212.021195 L39.3626772,211.856864 C46.7317,235.647864 56.8548532,249.443874 69.4509381,252.862144 C77.392503,255.01716 84.016365,252.60851 91.0292133,250.058528 C98.9095929,247.19305 107.057539,244.230973 117.493593,247.896849 C125.52123,250.71712 132.123851,257.471494 145.278529,270.927739 C151.851192,277.650707 158.06673,284.827646 163.752999,292.258377 L163.311704,292.596398 Z" id="Fill-36" fill="#FFFFFF" mask="url(#mask-6)"></path>
            </g>
            <g id="Group-16" transform="translate(73.884440, 336.880640)">
                <mask id="mask-9" fill="white">
                    <use xlink:href="#path-8"></use>
                </mask>
                <use id="Clip-40" fill="url(#linearGradient-7)" xlink:href="#path-8"></use>
                <path d="M21.8997357,34.7074146 C16.2496074,34.7074146 8.87028143,33.4888925 1.77635684e-14,29.4034653 L0.232060258,28.8988937 C20.9309159,38.4326148 33.358662,32.2040672 34.4628504,31.6063855 C39.5144408,18.851877 31.1759641,0.417171676 31.0908436,0.232220279 L31.5950675,-8.73967565e-13 C31.6812975,0.187647944 40.1589469,18.9238907 34.9415539,31.9045919 L34.9063644,31.9916745 L34.8261578,32.0397365 C34.7507065,32.0847847 30.1860623,34.7074146 21.8997357,34.7074146" id="Fill-39" fill="#FFFFFF" mask="url(#mask-9)"></path>
                <path d="M44.7518854,54.8560768 L44.2281648,54.6716013 C46.5658865,48.0233441 54.2173761,41.4296523 66.9708625,35.0738911 C75.5727847,30.7870159 83.7078916,28.0719104 85.1932992,27.5890699 C82.3199684,14.955906 51.0534944,15.2629951 50.7461414,15.2709261 L50.7374233,14.7154374 C50.8182639,14.714803 58.9034399,14.6143962 67.2040324,16.1404832 C78.432959,18.2050864 84.6859051,22.1022313 85.7891424,27.7232627 L85.8373298,27.9673795 L85.5998801,28.0417725 C85.2470344,28.1526482 50.2186164,39.3079457 44.7518854,54.8560768" id="Fill-42" fill="#FFFFFF" mask="url(#mask-9)"></path>
            </g>
            <path d="M141.465174,397.672134 L140.954452,397.453555 C144.977622,388.051331 154.014816,383.078739 167.089287,383.073505 L167.108784,383.073505 C175.882532,383.073505 183.793821,385.321791 185.446617,385.822714 C188.242911,365.24933 169.772721,346.609052 169.584569,346.422039 L169.976091,346.028184 C170.166939,346.217736 189.026273,365.244254 185.95084,386.224975 L185.902653,386.550782 L185.589752,386.448471 C185.244356,386.335534 150.975682,375.441801 141.465174,397.672134" id="Fill-45" fill="#FFFFFF"></path>
            <path d="M122.869222,182.969735 L122.869222,397.789513 C122.869222,405.030535 128.535202,410.743408 135.179829,410.20156 L135.179829,410.20156 L441.89311,385.194894 C447.869771,384.707454 452.490053,379.295643 452.490053,372.782689 L452.490053,372.782689 L452.490053,194.467969 C452.490053,187.760705 447.59951,182.259591 441.43105,182.028481 L441.43105,182.028481 L134.717927,170.530088 C134.58351,170.522632 134.448617,170.522632 134.315151,170.522632 L134.315151,170.522632 C128.019723,170.522632 122.869222,176.073554 122.869222,182.969735" id="Fill-49"></path>
            <path d="M128.14146,182.969735 L128.14146,397.789513 C128.14146,405.030535 133.807439,410.743408 140.451908,410.20156 L140.451908,410.20156 L447.165348,385.194894 C453.141851,384.707454 457.762132,379.295643 457.762132,372.782689 L457.762132,372.782689 L457.762132,194.467969 C457.762132,187.760705 452.871748,182.259591 446.703447,182.028481 L446.703447,182.028481 L139.990007,170.530088 C139.855589,170.522632 139.720696,170.522632 139.587388,170.522632 L139.587388,170.522632 C133.291803,170.522632 128.14146,176.073554 128.14146,182.969735" id="Fill-52"></path>
            <path d="M132.300474,173.378117 L304.110661,302.514006 C310.880987,307.603025 319.93847,307.183315 326.285572,301.486463 L326.285572,301.486463 L454.804474,186.13897 C452.794394,183.718581 449.927721,182.149191 446.703447,182.028481 L446.703447,182.028481 L139.990007,170.530246 C139.855748,170.52517 139.721647,170.522632 139.588339,170.522632 L139.588339,170.522632 C136.825015,170.522632 134.284082,171.59443 132.300474,173.378117" id="Fill-55"></path>
            <path d="M128.14146,182.969576 L128.14146,397.789513 C128.14146,405.030852 133.807439,410.743408 140.451908,410.20156 L140.451908,410.20156 L447.165348,385.194894 C453.141851,384.707454 457.762132,379.295643 457.762132,372.782689 L457.762132,372.782689 L457.762132,194.467969 C457.762132,191.266692 456.639398,188.348711 454.804474,186.13897 L454.804474,186.13897 L326.285572,301.486463 C319.93847,307.183315 310.880987,307.603025 304.110661,302.514006 L304.110661,302.514006 L132.300474,173.378117 C129.765248,175.657492 128.14146,179.100507 128.14146,182.969576" id="Fill-58" fill="url(#linearGradient-10)"></path>
            <path d="M132.300474,173.378117 L304.110661,302.514006 C310.880987,307.603025 319.93847,307.183315 326.285572,301.486463 L326.285572,301.486463 L454.804474,186.13897 C452.794394,183.718581 449.927721,182.149191 446.703447,182.028481 L446.703447,182.028481 L139.990007,170.530246 C139.855748,170.52517 139.721647,170.522632 139.588339,170.522632 L139.588339,170.522632 C136.825015,170.522632 134.284082,171.59443 132.300474,173.378117" id="Fill-61" fill="url(#linearGradient-11)"></path>
            <path d="M454.804315,186.13897 L326.285572,301.486463 C319.93847,307.183156 310.881146,307.603025 304.110661,302.514165 L132.300474,173.378117 C129.765248,175.657492 128.14146,179.100507 128.14146,182.969576 L128.14146,214.651306 C134.348755,211.816284 139.601496,211.272374 143.871151,211.660042 C155.67468,212.731682 158.493166,220.739157 181.094789,232.298778 C202.22749,243.106856 204.444585,238.500519 213.760441,246.333036 C231.708019,261.422754 223.859183,278.839275 239.589191,295.040288 C255.969253,311.910679 270.102262,298.815295 293.525606,314.853405 C318.276957,331.800885 310.353462,351.803712 330.749245,363.560657 C359.3242,380.032434 388.503875,348.625276 412.793324,365.211578 C420.137461,370.226838 424.833035,378.130259 427.86028,386.768885 L447.165348,385.194894 C453.141851,384.707612 457.762291,379.295643 457.762291,372.782689 L457.762291,194.467969 C457.762291,191.266851 456.639557,188.34887 454.804315,186.13897" id="Fill-64" fill="#FFE9AF"></path>
        </g>
    </g>
</svg>