<?xml version="1.0" encoding="UTF-8"?>
<svg width="24px" height="24px" viewBox="0 0 24 24" version="1.1" xmlns="http://www.w3.org/2000/svg" xmlns:xlink="http://www.w3.org/1999/xlink">
    <title>Alsafa News/media/icons/system/pause audio</title>
    <g id="Symbols" stroke="none" stroke-width="1" fill="none" fill-rule="evenodd">
        <g id="pause_presentation-24px">
            <polygon id="Path" points="0 0 24 0 24 24 0 24"></polygon>
            <path d="M21,19.1 L3,19.1 L3,5 L21,5 L21,19.1 Z M21,3 L3,3 C1.9,3 1,3.9 1,5 L1,19 C1,20.1 1.9,21 3,21 L21,21 C22.1,21 23,20.1 23,19 L23,5 C23,3.9 22.1,3 21,3 Z" id="Shape" fill="#000000" fill-rule="nonzero"></path>
            <path d="M21,19.1 L3,19.1 L3,5 L21,5 L21,19.1 Z M21,3 L3,3 C1.9,3 1,3.9 1,5 L1,19 C1,20.1 1.9,21 3,21 L21,21 C22.1,21 23,20.1 23,19 L23,5 C23,3.9 22.1,3 21,3 Z" id="Shape" fill="#262626"></path>
            <path d="M9,8 L11,8 L11,16 L9,16 L9,8 Z M13,8 L15,8 L15,16 L13,16 L13,8 Z" id="Shape" fill="#262626"></path>
        </g>
    </g>
</svg>