<svg xmlns="http://www.w3.org/2000/svg" xmlns:xlink="http://www.w3.org/1999/xlink" width="24" height="24" version="1.1" viewBox="0 0 24 24"><title>Alsafa News/media/icons/system/play</title><g id="Symbols" fill="none" fill-rule="evenodd" stroke="none" stroke-width="1"><g id="play_circle_outline_black_24dp" fill="#262626" transform="translate(2.000000, 2.000000)"><path id="Shape" d="M8.8,13.9 L13.47,10.4 C13.74,10.2 13.74,9.8 13.47,9.6 L8.8,6.1 C8.47,5.85 8,6.09 8,6.5 L8,13.5 C8,13.91 8.47,14.15 8.8,13.9 Z M10,0 C4.48,0 0,4.48 0,10 C0,15.52 4.48,20 10,20 C15.52,20 20,15.52 20,10 C20,4.48 15.52,0 10,0 Z M10,18 C5.59,18 2,14.41 2,10 C2,5.59 5.59,2 10,2 C14.41,2 18,5.59 18,10 C18,14.41 14.41,18 10,18 Z"/></g></g></svg>