<?xml version="1.0" encoding="UTF-8"?>
<svg width="24px" height="24px" viewBox="0 0 24 24" version="1.1" xmlns="http://www.w3.org/2000/svg" xmlns:xlink="http://www.w3.org/1999/xlink">
    <title>Alsafa News/media/icons/system/play audio</title>
    <g id="Symbols" stroke="none" stroke-width="1" fill="none" fill-rule="evenodd">
        <g id="video_settings-24px" transform="translate(0.000000, -1.000000)">
            <rect id="Rectangle" x="0" y="0" width="24" height="24"></rect>
            <g id="Group" transform="translate(1.000000, 4.000000)">
                <path d="M2,2 L20,2 L20,7 L22,7 L22,2 C22,0.9 21.1,0 20,0 L2,0 C0.9,0 0,0.9 0,2 L0,14 C0,15.1 0.9,16 2,16 L11,16 L11,14 L2,14 L2,2 Z" id="Path" fill="#262626"></path>
                <polygon id="Path" fill="#262626" points="15 8 9 4 9 12"></polygon>
                <g id="graphic_eq-24px" transform="translate(11.000000, 9.000000)">
                    <polygon id="Path" points="0 0 12 0 12 12 0 12"></polygon>
                    <path d="M3.5,9 L4.5,9 L4.5,3 L3.5,3 L3.5,9 Z M5.5,11 L6.5,11 L6.5,1 L5.5,1 L5.5,11 Z M1.5,7 L2.5,7 L2.5,5 L1.5,5 L1.5,7 Z M7.5,9 L8.5,9 L8.5,3 L7.5,3 L7.5,9 Z M9.5,5 L9.5,7 L10.5,7 L10.5,5 L9.5,5 Z" id="Shape" fill="#262626"></path>
                </g>
            </g>
        </g>
    </g>
</svg>