<svg xmlns="http://www.w3.org/2000/svg" xmlns:xlink="http://www.w3.org/1999/xlink" width="48" height="48" version="1.1" viewBox="0 0 48 48"><title>Alsafa News/media/icons/graphical/podcast 2 big</title><g id="Symbols" fill="none" fill-rule="evenodd" stroke="none" stroke-width="1"><g id="Alsafa-News/media/icons/graphical/podcast-2-big"><rect id="Rectangle" width="48" height="48" x="0" y="0" fill="#FFF" rx="4"/><g id="podcasts-24px" transform="translate(12.000000, 10.000000)"><polygon id="Path" points="0 0 24 0 24 24 0 24"/><path id="Shape" fill="#964FBF" d="M14,12 C14,12.74 13.6,13.38 13,13.72 L13,22 L11,22 L11,13.72 C10.4,13.37 10,12.74 10,12 C10,10.9 10.9,10 12,10 C13.1,10 14,10.9 14,12 Z M12,6 C8.69,6 6,8.69 6,12 C6,13.74 6.75,15.31 7.94,16.4 L9.36,14.98 C8.53,14.25 8,13.19 8,12 C8,9.79 9.79,8 12,8 C14.21,8 16,9.79 16,12 C16,13.19 15.47,14.25 14.64,14.98 L16.06,16.4 C17.25,15.31 18,13.74 18,12 C18,8.69 15.31,6 12,6 Z M12,2 C6.48,2 2,6.48 2,12 C2,14.85 3.2,17.41 5.11,19.24 L6.53,17.82 C4.98,16.36 4,14.29 4,12 C4,7.59 7.59,4 12,4 C16.41,4 20,7.59 20,12 C20,14.29 19.02,16.36 17.47,17.82 L18.89,19.24 C20.8,17.41 22,14.85 22,12 C22,6.48 17.52,2 12,2 Z"/></g></g></g></svg>