<svg xmlns="http://www.w3.org/2000/svg" xmlns:xlink="http://www.w3.org/1999/xlink" width="36" height="36" version="1.1" viewBox="0 0 36 36"><title>Alsafa News/media/icons/graphical/podcast</title><defs><polygon id="path-1" points="0 35.99 36 35.99 36 0 0 0"/></defs><g id="Symbols" fill="none" fill-rule="evenodd" stroke="none" stroke-width="1"><g id="Group-18-Copy" transform="translate(0.000000, 0.000000)"><path id="Fill-1" fill="#FFE9AF" d="M21,15.1205905 L21,23.8680395 C21,25.5933957 19.6569,26.9921284 18,26.9921284 C16.343175,26.9921284 15,25.5933957 15,23.8680395 L15,15.1205905 C15,13.3952342 16.343175,11.9965015 18,11.9965015 C19.6569,11.9965015 21,13.3952342 21,15.1205905 Z"/><mask id="mask-2" fill="#fff"><use xlink:href="#path-1"/></mask><polygon id="Fill-3" fill="#FFE9AF" points="16 32.99 19 32.99 19 27.992 16 27.992" mask="url(#mask-2)"/><path id="Fill-5" fill="#FFE9AF" d="M19.8333333,32.9903792 L15.1666667,32.9903792 C14.522375,32.9903792 14,33.6617146 14,34.4899419 L14,35.9895046 L21,35.9895046 L21,34.4899419 C21,33.6617146 20.4776979,32.9903792 19.8333333,32.9903792" mask="url(#mask-2)"/><path id="Fill-6" fill="#FFE9AF" d="M15,17.9947523 L21,17.9947523 L21,23.1361101 C21,24.7135786 19.6569,25.99242 18,25.99242 C16.343175,25.99242 15,24.7135786 15,23.1361101 L15,17.9947523 Z" mask="url(#mask-2)"/><polygon id="Fill-8" fill="#FFE9AF" points="11 20.994 25 20.994 25 17.995 11 17.995" mask="url(#mask-2)"/><path id="Fill-14" fill="#000" d="M36,17.9947523 L34.8,17.9947523 C34.8,8.7190573 27.2784,1.19965015 18,1.19965015 C8.7216,1.19965015 1.2,8.7190573 1.2,17.9947523 L0,17.9947523 C0,8.05655051 8.0589,0 18,0 C27.941175,0 36,8.05655051 36,17.9947523" mask="url(#mask-2)"/><path id="Fill-15" fill="#000" d="M32,17.9947523 L30.7916667,17.9947523 C30.7916667,10.40306 24.840776,4.24876095 17.5,4.24876095 C10.159224,4.24876095 4.20833333,10.40306 4.20833333,17.9947523 L3,17.9947523 C3,9.71287061 9.49184635,2.99912538 17.5,2.99912538 C25.5081536,2.99912538 32,9.71287061 32,17.9947523" mask="url(#mask-2)"/><path id="Fill-16" fill="#000" d="M28,17.9947523 L26.8333333,17.9947523 C26.8333333,12.5962433 22.654625,8.21982511 17.5,8.21982511 C12.345375,8.21982511 8.16666667,12.5962433 8.16666667,17.9947523 L7,17.9947523 C7,11.9213915 11.7010104,6.99795922 17.5,6.99795922 C23.2989896,6.99795922 28,11.9213915 28,17.9947523" mask="url(#mask-2)"/><path id="Fill-17" fill="#FFE9AF" d="M18,28.9915453 C14.687775,28.9877772 12.0036,26.2355798 12,22.8394933 L12,20.9938777 L13.2,20.9938777 L13.2,22.8394933 C13.2,25.5576237 15.34905,27.7611349 18,27.7611349 C20.651025,27.7611349 22.8,25.5576237 22.8,22.8394933 L22.8,20.9938777 L24,20.9938777 L24,22.8394933 C23.996325,26.2355798 21.312225,28.9877772 18,28.9915453" mask="url(#mask-2)"/></g></g></svg>