<?xml version="1.0" encoding="UTF-8"?>
<svg width="18px" height="18px" viewBox="0 0 18 18" version="1.1" xmlns="http://www.w3.org/2000/svg" xmlns:xlink="http://www.w3.org/1999/xlink">
    <title>Alsafa News/media/icons/graphical/podcast 2 small</title>
    <g id="Symbols" stroke="none" stroke-width="1" fill="none" fill-rule="evenodd">
        <g id="Alsafa-News/media/icons/graphical/podcast-2-small">
            <rect id="Rectangle" fill="#FFFFFF" x="0" y="0" width="18" height="18" rx="4"></rect>
            <g id="podcasts-24px">
                <polygon id="Path" points="0 0 18 0 18 18 0 18"></polygon>
                <path d="M10.5,9 C10.5,9.555 10.2,10.035 9.75,10.29 L9.75,16.5 L8.25,16.5 L8.25,10.29 C7.8,10.0275 7.5,9.555 7.5,9 C7.5,8.175 8.175,7.5 9,7.5 C9.825,7.5 10.5,8.175 10.5,9 Z M9,4.5 C6.5175,4.5 4.5,6.5175 4.5,9 C4.5,10.305 5.0625,11.4825 5.955,12.3 L7.02,11.235 C6.3975,10.6875 6,9.8925 6,9 C6,7.3425 7.3425,6 9,6 C10.6575,6 12,7.3425 12,9 C12,9.8925 11.6025,10.6875 10.98,11.235 L12.045,12.3 C12.9375,11.4825 13.5,10.305 13.5,9 C13.5,6.5175 11.4825,4.5 9,4.5 Z M9,1.5 C4.86,1.5 1.5,4.86 1.5,9 C1.5,11.1375 2.4,13.0575 3.8325,14.43 L4.8975,13.365 C3.735,12.27 3,10.7175 3,9 C3,5.6925 5.6925,3 9,3 C12.3075,3 15,5.6925 15,9 C15,10.7175 14.265,12.27 13.1025,13.365 L14.1675,14.43 C15.6,13.0575 16.5,11.1375 16.5,9 C16.5,4.86 13.14,1.5 9,1.5 Z" id="Shape" fill="#964FBF"></path>
            </g>
        </g>
    </g>
</svg>