<svg xmlns="http://www.w3.org/2000/svg" xmlns:xlink="http://www.w3.org/1999/xlink" width="24" height="24" version="1.1" viewBox="0 0 24 24"><title>Alsafa News/media/icons/system/radio botton active</title><g id="Symbols" fill="none" fill-rule="evenodd" stroke="none" stroke-width="1"><g id="radio_button_checked_black_24dp"><polygon id="Path" points="0 0 24 0 24 24 0 24"/><path id="Combined-Shape" fill="#C8161F" d="M12,2 C17.52,2 22,6.48 22,12 C22,17.52 17.52,22 12,22 C6.48,22 2,17.52 2,12 C2,6.48 6.48,2 12,2 Z M12,4 C7.58,4 4,7.58 4,12 C4,16.42 7.58,20 12,20 C16.42,20 20,16.42 20,12 C20,7.58 16.42,4 12,4 Z M12,7 C14.7614237,7 17,9.23857625 17,12 C17,14.7614237 14.7614237,17 12,17 C9.23857625,17 7,14.7614237 7,12 C7,9.23857625 9.23857625,7 12,7 Z"/></g></g></svg>