<svg xmlns="http://www.w3.org/2000/svg" xmlns:xlink="http://www.w3.org/1999/xlink" width="24" height="24" version="1.1" viewBox="0 0 24 24"><title>Alsafa News/media/icons/system/radio botton</title><g id="Symbols" fill="none" fill-rule="evenodd" stroke="none" stroke-width="1"><g id="radio_button_unchecked_black_24dp"><polygon id="Path" points="0 0 24 0 24 24 0 24"/><path id="Shape" fill="#262626" d="M12,2 C6.48,2 2,6.48 2,12 C2,17.52 6.48,22 12,22 C17.52,22 22,17.52 22,12 C22,6.48 17.52,2 12,2 Z M12,20 C7.58,20 4,16.42 4,12 C4,7.58 7.58,4 12,4 C16.42,4 20,7.58 20,12 C20,16.42 16.42,20 12,20 Z"/></g></g></svg>