<?xml version="1.0" encoding="UTF-8"?>
<svg width="24px" height="24px" viewBox="0 0 24 24" version="1.1" xmlns="http://www.w3.org/2000/svg" xmlns:xlink="http://www.w3.org/1999/xlink">
    <title>Alsafa News/media/icons/system/speaker</title>
    <g id="Symbols" stroke="none" stroke-width="1" fill="none" fill-rule="evenodd">
        <g id="campaign_black_24dp-(1)">
            <rect id="Rectangle" x="0" y="0" width="24" height="24"></rect>
            <path d="M18,12 L18,12 C18,12.55 18.45,13 19,13 L21,13 C21.55,13 22,12.55 22,12 L22,12 C22,11.45 21.55,11 21,11 L19,11 C18.45,11 18,11.45 18,12 Z" id="Path" fill="#262626"></path>
            <path d="M16.59,16.82 C16.26,17.26 16.35,17.87 16.79,18.19 C17.32,18.58 17.88,19 18.41,19.4 C18.85,19.73 19.47,19.64 19.79,19.2 C19.79,19.19 19.8,19.19 19.8,19.18 C20.13,18.74 20.04,18.12 19.6,17.8 C19.07,17.4 18.51,16.98 17.99,16.59 C17.55,16.26 16.93,16.36 16.6,16.8 C16.6,16.81 16.59,16.82 16.59,16.82 Z" id="Path" fill="#262626"></path>
            <path d="M19.81,4.81 C19.81,4.8 19.8,4.8 19.8,4.79 C19.47,4.35 18.85,4.26 18.42,4.59 C17.89,4.99 17.32,5.41 16.8,5.81 C16.36,6.14 16.28,6.76 16.61,7.19 C16.61,7.2 16.62,7.2 16.62,7.21 C16.95,7.65 17.56,7.74 18,7.41 C18.53,7.02 19.09,6.59 19.62,6.19 C20.05,5.87 20.13,5.25 19.81,4.81 Z" id="Path" fill="#262626"></path>
            <path d="M8,9 L4,9 C2.9,9 2,9.9 2,11 L2,13 C2,14.1 2.9,15 4,15 L5,15 L5,18 C5,18.55 5.45,19 6,19 L6,19 C6.55,19 7,18.55 7,18 L7,15 L8,15 L13,18 L13,6 L8,9 Z" id="Path" fill="#262626"></path>
            <path d="M15.5,12 C15.5,10.67 14.92,9.47 14,8.65 L14,15.34 C14.92,14.53 15.5,13.33 15.5,12 Z" id="Path" fill="#262626"></path>
        </g>
    </g>
</svg>