<?xml version="1.0" encoding="UTF-8"?>
<svg width="24px" height="24px" viewBox="0 0 24 24" version="1.1" xmlns="http://www.w3.org/2000/svg" xmlns:xlink="http://www.w3.org/1999/xlink">
    <title>Alsafa News/media/icons/system/time</title>
    <g id="Symbols" stroke="none" stroke-width="1" fill="none" fill-rule="evenodd">
        <g id="history-24px">
            <polygon id="Path" points="0 0 24 0 24 24 0 24"></polygon>
            <path d="M12,8 L12,12 C12,12.27 12.11,12.52 12.29,12.71 L15.08,15.5 C15.47,15.89 16.1,15.89 16.49,15.5 L16.49,15.5 C16.88,15.11 16.88,14.48 16.49,14.09 L13.99,11.59 L13.99,8 C13.99,7.45 13.54,7 12.99,7 L12.99,7 C12.45,7 12,7.45 12,8 Z M13.26,3 C8.17,2.86 4,6.94 4,12 L2.21,12 C1.76,12 1.54,12.54 1.86,12.85 L4.65,15.64 C4.85,15.84 5.16,15.84 5.36,15.64 L8.16,12.85 C8.46,12.54 8.24,12 7.79,12 L6,12 C6,8.11 9.2,4.94 13.1,5 C16.81,5.05 19.94,8.18 20,11.9 C20.06,15.81 16.9,19 13,19 C11.41,19 9.95,18.47 8.77,17.57 C8.37,17.27 7.81,17.3 7.46,17.66 L7.46,17.66 C7.03,18.09 7.07,18.8 7.55,19.16 C9.06,20.31 10.95,21 13,21 C18.06,21 22.14,16.83 22,11.75 C21.87,7.05 17.95,3.13 13.26,3 Z" id="Shape" fill="#262626"></path>
        </g>
    </g>
</svg>