<svg xmlns="http://www.w3.org/2000/svg" xmlns:xlink="http://www.w3.org/1999/xlink" width="24" height="24" version="1.1" viewBox="0 0 24 24"><title>Alsafa News/media/icons/system/twitter</title><g id="Symbols" fill="none" fill-rule="evenodd" stroke="none" stroke-width="1"><g id="Alsafa-News/media/icons/system/twitter" fill="#262626"><path id="Fill-454" d="M22.9215706,6.03871712 C22.2527823,6.3361495 21.5205323,6.51844677 20.7980457,6.63358189 C21.144644,6.57601433 21.642574,5.96675767 21.847604,5.72689284 C22.155149,5.34790642 22.4138773,4.92094703 22.5554456,4.46040656 C22.5749723,4.42202819 22.5896173,4.37405523 22.5505639,4.35006874 C22.5017473,4.33567685 22.4724573,4.34047415 22.4334039,4.35966334 C21.6328106,4.78182543 20.7980457,5.08885241 19.9193457,5.30952805 C19.8412391,5.32871723 19.7875407,5.30952805 19.7436057,5.26155508 C19.6703807,5.18000104 19.5971558,5.10804159 19.5239308,5.04087944 C19.1529241,4.73385246 18.7526275,4.48919034 18.3035142,4.30689307 C17.7128325,4.07182554 17.0684525,3.96628502 16.4289542,4.00946069 C15.8138643,4.04783906 15.203656,4.22054174 14.6569093,4.50358223 C14.1003994,4.78662273 13.6122327,5.17520374 13.2216994,5.6549334 C12.8165211,6.13946034 12.5187394,6.72473052 12.3674078,7.33878447 C12.2209578,7.93364924 12.2307211,8.51891942 12.3185911,9.11858148 C12.3332361,9.21452741 12.3234728,9.2289193 12.2356028,9.21452741 C8.7745013,8.71081128 5.90408145,7.49229796 3.57552656,4.88736595 C3.47789324,4.76743354 3.41931324,4.76743354 3.33632491,4.89216325 C2.31605663,6.39371706 2.8139866,8.80675721 4.08810154,9.99168945 C4.2540782,10.1452029 4.42981819,10.308311 4.61532151,10.4522299 C4.54697818,10.4666218 3.69756823,10.3706759 2.9457916,9.99168945 C2.84815827,9.92932459 2.79445994,9.96290567 2.7846966,10.0780408 C2.77493327,10.2363516 2.78957827,10.3850678 2.8139866,10.5625677 C3.00925326,12.088108 4.08321987,13.4937159 5.5477198,14.0406077 C5.72345979,14.1173645 5.91872645,14.174932 6.10422977,14.2085131 C5.76739479,14.2804725 5.42567814,14.3332428 4.46887152,14.2612833 C4.34194819,14.2372969 4.30289486,14.2948644 4.34194819,14.4052022 C5.06931649,16.3385127 6.62168641,16.9141883 7.78840468,17.2404045 C7.94949968,17.2691883 8.10083134,17.2691883 8.25704466,17.3075666 C8.24728133,17.3171612 8.23751799,17.3171612 8.22775466,17.3315531 C7.84210301,17.912026 6.50452642,18.3389854 5.87967311,18.5548637 C4.74224484,18.9434448 3.50718323,19.1209447 2.3062933,19.0010123 C2.11590831,18.9770258 2.07197331,18.9770258 2.02315664,19.0010123 C1.96945831,19.0393907 2.01827498,19.0825664 2.07685497,19.1305393 C2.3209383,19.2888501 2.56990328,19.4279717 2.82374994,19.562296 C3.5852899,19.9604716 4.37611986,20.2770932 5.20600315,20.5025661 C9.49698793,21.6683092 14.3298377,20.8095931 17.5517375,17.6673639 C20.0804407,15.1967562 20.968904,11.7906756 20.968904,8.37979782 C20.968904,8.24547352 21.129999,8.17351407 21.2227507,8.10635192 C21.8817756,7.61702767 22.4089956,7.03655479 22.8971623,6.38412247 C23.0094406,6.24020357 22.9996772,6.11067657 22.9996772,6.0579063 L22.9996772,6.03871712 C22.9996772,5.98114956 23.0094406,6.00033875 22.9215706,6.03871712"/></g></g></svg>