<?xml version="1.0" encoding="UTF-8"?>
<svg width="24px" height="24px" viewBox="0 0 24 24" version="1.1" xmlns="http://www.w3.org/2000/svg" xmlns:xlink="http://www.w3.org/1999/xlink">
    <title>Alsafa News/media/icons/system/volume-up</title>
    <g id="Symbols" stroke="none" stroke-width="1" fill="none" fill-rule="evenodd">
        <g id="volume_up_black_24dp" fill="#262626" transform="translate(3.000000, 4.000000)">
            <path d="M0,6.46102249 L0,10.4610225 C0,11.0110225 0.45,11.4610225 1,11.4610225 L4,11.4610225 L7.29,14.7510225 C7.92,15.3810225 9,14.9310225 9,14.0410225 L9,2.87102249 C9,1.98102249 7.92,1.53102249 7.29,2.16102249 L4,5.46102249 L1,5.46102249 C0.45,5.46102249 0,5.91102249 0,6.46102249 Z M13.5,8.46102249 C13.5,6.69102249 12.48,5.17102249 11,4.43102249 L11,12.4810225 C12.48,11.7510225 13.5,10.2310225 13.5,8.46102249 Z M11,0.911022492 L11,1.11102249 C11,1.49102249 11.25,1.82102249 11.6,1.96102249 C14.18,2.99102249 16,5.52102249 16,8.46102249 C16,11.4010225 14.18,13.9310225 11.6,14.9610225 C11.24,15.1010225 11,15.4310225 11,15.8110225 L11,16.0110225 C11,16.6410225 11.63,17.0810225 12.21,16.8610225 C15.6,15.5710225 18,12.3010225 18,8.46102249 C18,4.62102249 15.6,1.35102249 12.21,0.0610224924 C11.63,-0.168977508 11,0.281022492 11,0.911022492 Z" id="Shape"></path>
        </g>
    </g>
</svg>