<?xml version="1.0" encoding="UTF-8"?>
<svg width="24px" height="24px" viewBox="0 0 24 24" version="1.1" xmlns="http://www.w3.org/2000/svg" xmlns:xlink="http://www.w3.org/1999/xlink">
    <title>Alsafa News/media/icons/system/youtube</title>
    <g id="Symbols" stroke="none" stroke-width="1" fill="none" fill-rule="evenodd">
        <g id="Alsafa-News/media/icons/system/youtube" fill="#262626">
            <path d="M15.9926746,12.8415717 L9.70336073,15.9747346 C9.53577541,16.058271 9.34219665,15.9305953 9.34219665,15.7367366 L9.34219665,9.27451972 C9.34219665,9.07784695 9.54086434,8.95043177 9.7087989,9.03928367 L15.9981128,12.3682855 C16.1851059,12.4672473 16.1818629,12.7473522 15.9926746,12.8415717 M19.2231947,4 L5.77680526,4 C3.13864612,4 1,6.2338566 1,8.98951618 L1,16.0105359 C1,18.7661434 3.13864612,21 5.77680526,21 L19.2231947,21 C21.8613539,21 24,18.7661434 24,16.0105359 L24,8.98951618 C24,6.2338566 21.8613539,4 19.2231947,4" id="Fill-1"></path>
        </g>
    </g>
</svg>