<?xml version="1.0" encoding="UTF-8"?>
<svg width="348px" height="151px" viewBox="0 0 348 151" version="1.1" xmlns="http://www.w3.org/2000/svg" xmlns:xlink="http://www.w3.org/1999/xlink">
    <title>Alsafa News/media/logo</title>
    <g id="Symbols" stroke="none" stroke-width="1" fill="none" fill-rule="evenodd">
        <g id="Alsafa-News/media/logo" fill="#C8161F">
            <path d="M178.1183,85.7900763 L178.1183,142.406929 L187.19623,142.406929 C187.203266,142.406929 187.209663,142.404376 187.21734,142.404376 L187.21734,142.404376 L197.74674,142.404376 C196.872275,141.087423 196.169249,139.615346 195.654293,137.989423 C194.88282,135.610226 194.505399,133.248903 194.505399,130.922051 C194.505399,124.059596 196.683565,118.565802 201.005352,114.578555 C205.292597,110.625781 214.775454,108.623221 221.995066,108.623221 L221.995066,108.623221 L233.94779,108.623221 L233.94779,142.404376 L246.363014,142.404376 L246.363014,111.105195 L255.538178,111.105195 L255.538178,122.844144 C257.835327,118.565802 263.700062,115.349066 266.787236,112.884965 C274.559871,107.927737 281.093356,107.772591 286.14374,107.767941 L286.731046,107.767808 C293.282175,107.767808 300.055279,109.598647 303.450786,113.209895 C306.846934,116.803268 308.561319,122.433673 308.561319,129.912153 L308.561319,129.912153 L308.561319,142.404376 L321.011088,142.404376 L321.011088,85.7945449 L330.511856,85.7945449 L330.511856,150.995531 L188.087966,150.995531 C188.070695,150.995531 188.054702,151 188.03743,151 L188.03743,151 L168.613694,151 L168.613694,85.7900763 L178.1183,85.7900763 Z M348,85.7903955 L348,150.999681 L338.495393,150.999681 L338.495393,85.7903955 L348,85.7903955 Z M285.222002,116.443867 C277.230917,116.443867 261.145115,123.306322 255.538178,136.859512 L255.538178,136.859512 L255.538178,142.404376 L299.369524,142.404376 L299.369524,130.271555 C299.369524,125.462729 298.340893,121.920425 296.300262,119.712949 C294.294174,117.539306 289.423527,116.443867 285.222002,116.443867 Z M224.773266,117.179905 L222.234952,117.179905 C217.587558,117.179905 210.299499,118.395357 207.778456,120.791152 C205.274685,123.186947 204.006168,126.592002 204.006168,130.922051 C204.006168,138.657156 207.384403,142.404376 214.329585,142.404376 L214.329585,142.404376 L224.773266,142.404376 L224.773266,117.179905 Z M146.511933,90.6510509 C148.058079,90.657568 149.4878,90.9416418 150.801096,91.5014904 L150.801096,91.5014904 L150.804294,90.8995095 L154.706442,90.9167454 L154.682773,95.931764 L150.780626,95.9151664 C150.449263,94.7080126 149.201855,94.1002863 147.036484,94.0913492 C145.480742,94.0836888 144.700313,94.5133104 144.697114,95.3821292 C144.695195,95.7632348 144.901178,96.0473086 145.313142,96.2324353 C145.727025,96.4182003 146.3277,96.5733237 147.122203,96.6971671 C149.350905,96.9895396 151.107511,97.4025637 152.388822,97.9336858 C153.669494,98.4667231 154.565708,99.1216886 155.071708,99.8992207 C155.578987,100.679945 155.831667,101.620261 155.827248,102.728467 C155.818234,104.531857 155.19389,105.931798 153.954159,106.930205 C152.716986,107.929251 151.035225,108.425901 148.913352,108.415842 C146.845214,108.405474 145.44364,107.986066 144.708629,107.156826 L144.708629,107.156826 L144.703511,107.987981 L140.722682,107.971383 L140.749549,102.074779 L144.730379,102.092015 C144.835929,102.90721 145.228062,103.550685 145.90614,104.020524 C146.584218,104.49164 147.4235,104.727836 148.424624,104.730389 C149.40272,104.735496 150.128136,104.62825 150.597033,104.406737 C151.06593,104.187777 151.301978,103.799649 151.303258,103.246184 C151.305177,102.865717 151.207943,102.570152 151.014115,102.357576 C150.817728,102.145638 150.442866,101.956681 149.881853,101.789428 C149.322758,101.625368 148.466844,101.436411 147.314112,101.224473 C144.74893,100.813364 142.904686,100.154568 141.782658,99.2519156 C140.659352,98.3511785 140.103456,97.1433863 140.109798,95.6227939 C140.11625,94.0696447 140.70605,92.8516386 141.881811,91.9655839 C143.053735,91.0820827 144.597962,90.6422472 146.511933,90.6510509 Z M99.9714725,90.2793979 C101.776695,90.2865486 103.34715,90.7091482 104.680277,91.5447718 C106.015323,92.3823105 107.042035,93.5652063 107.758495,95.0947359 C108.475594,96.6242655 108.838942,98.3970133 108.850456,100.417448 L108.850456,100.417448 L96.0558918,100.358718 C96.1812723,101.672479 96.630339,102.715572 97.4056509,103.484167 C98.1796833,104.252762 99.182727,104.640252 100.411584,104.645359 C101.771578,104.652381 103.101506,103.98401 104.402648,102.644714 L104.402648,102.644714 L108.639357,104.03061 C107.698363,105.427998 106.534116,106.471729 105.149174,107.166912 C103.764231,107.860818 102.12469,108.204898 100.231189,108.194684 C98.338328,108.187024 96.6674414,107.823793 95.2185294,107.10499 C93.7683381,106.388103 92.6482299,105.375652 91.8524478,104.070828 C91.0605039,102.764088 90.6670907,101.230729 90.6752776,99.4713865 C90.6837228,97.7350257 91.1072017,96.1627255 91.9464832,94.7538474 C92.7838455,93.3468845 93.9141888,92.2469765 95.3387923,91.4547619 C96.7627561,90.6644624 98.3069829,90.2712277 99.9714725,90.2793979 Z M109.224167,90.7126592 L118.573327,90.7547915 L118.555416,94.7605503 L116.69454,94.7516131 L118.722377,101.095714 L122.326425,90.771389 L126.831806,90.7911784 L130.195968,101.147422 L132.329355,94.822472 L130.353334,94.8135348 L130.371885,90.8084144 L138.662988,90.8448013 L138.644437,94.8505602 L136.539196,94.8403463 L132.007588,108.191812 L127.258483,108.170107 L123.957651,98.0896391 L120.599885,108.140104 L115.85078,108.119676 L111.40745,94.7267168 L109.205616,94.7171413 L109.224167,90.7126592 Z M81.3973804,90.3569001 C83.1060091,90.364621 84.3988352,90.912979 85.2745793,91.9962894 C86.1503235,93.0789615 86.5840375,94.6850952 86.5738024,96.8140523 L86.5738024,96.8140523 L86.5418176,103.78503 L89.1210728,103.796521 L89.1025216,107.737166 L81.0410696,107.702056 L81.0896865,97.2302682 C81.092885,96.426563 80.9739015,95.8418179 80.7308169,95.4773098 C80.486453,95.1128017 80.0764077,94.9289518 79.5000414,94.9257599 C78.4554174,94.9225681 77.4037568,95.2915448 76.3450595,96.0352434 L76.3450595,96.0352434 L76.3098762,103.739706 L78.9857256,103.751197 L78.9671744,107.691842 L68.2465051,107.643326 L68.2644166,103.702681 L70.8756567,103.71481 L70.9172369,94.5446543 L68.3066366,94.5331636 L68.3251877,90.5267664 L76.3700077,90.5637918 L76.3616916,92.1743941 C78.0012331,90.954473 79.6778769,90.3499385 81.3973804,90.3569001 Z M215.223625,89.6860358 C217.019892,89.6860358 218.447054,90.2612054 219.462892,91.3955852 C220.450583,92.4954932 220.951465,93.9528872 220.951465,95.7262733 C220.951465,97.5009362 220.450583,98.9576918 219.463532,100.056323 C218.447054,101.191341 217.019892,101.766511 215.223625,101.766511 C213.494526,101.766511 212.091672,101.221345 211.053445,100.149525 C210.020336,99.0872805 209.495785,97.5986065 209.495785,95.7262733 C209.495785,93.8603238 210.010101,92.37548 211.026578,91.3094055 C212.057129,90.2324788 213.469578,89.6860358 215.223625,89.6860358 Z M99.6932046,93.909925 C98.7138297,93.9048181 97.9263636,94.1837849 97.3320858,94.7449103 C96.7346095,95.3085892 96.3591078,96.1691092 96.2017425,97.3290237 L96.2017425,97.3290237 L103.349069,97.3622188 C103.200019,96.3414685 102.789974,95.5103134 102.111256,94.8719455 C101.435097,94.2354927 100.627801,93.9124785 99.6932046,93.909925 Z M22.3964051,29.5896947 C26.0394751,29.5896947 29.1771852,30.0448511 31.805697,30.9526103 C34.4342089,31.862923 36.5906249,33.0885894 38.2723863,34.625141 C39.9541477,36.1661613 41.1989966,37.9306103 42.0043742,39.9242333 C42.8091121,41.9191332 43.2134001,44.000851 43.2134001,46.1668334 L43.2134001,46.1668334 L43.2134001,71.5598335 C43.2134001,73.3076849 43.2485834,74.9170105 43.3183103,76.3865335 C43.3880372,77.8554181 43.4929473,79.255359 43.6343202,80.5831643 L43.6343202,80.5831643 L35.2229544,80.5831643 C35.0137737,78.0648028 34.9069444,75.5458029 34.9069444,73.0293565 L34.9069444,73.0293565 L34.6971241,73.0293565 C32.5944425,76.2467309 30.1053844,78.5212359 27.2325086,79.8490412 C24.3577137,81.1774849 21.0287345,81.8413875 17.2436518,81.8413875 C14.9292308,81.8413875 12.7222788,81.5273105 10.6189576,80.8985181 C8.51627604,80.2678106 6.67586996,79.3249411 5.09901873,78.0648028 C3.5215278,76.8065796 2.27731861,75.2508769 1.36767056,73.396418 C0.456103419,71.5438743 3.55271368e-15,69.3919359 3.55271368e-15,66.9431565 C3.55271368e-15,63.7257821 0.718378877,61.0325077 2.15641602,58.8639718 C3.59189439,56.6960743 5.55448245,54.9297102 8.04418022,53.5648795 C10.5306795,52.2000489 13.4406577,51.2227076 16.7696369,50.6258335 C20.0986162,50.0334281 23.6572463,49.7346719 27.4416893,49.7346719 L27.4416893,49.7346719 L34.3811141,49.7346719 L34.3811141,47.6363564 C34.3811141,46.3781332 34.1348311,45.1173565 33.6461031,43.8597717 C33.1548164,42.6009101 32.4178863,41.4639768 31.4378717,40.4496102 C30.4546586,39.4371586 29.2309197,38.6315383 27.7583389,38.0353026 C26.2857582,37.4428971 24.5323508,37.1435026 22.5013152,37.1435026 C20.6775413,37.1435026 19.0840579,37.3196921 17.7163874,37.668241 C16.3506359,38.018705 15.1038679,38.4553487 13.9850392,38.9800871 C12.8617326,39.5041872 11.8452553,40.1170205 10.9356072,40.8160334 C10.0234004,41.5169614 9.14637684,42.180864 8.30645567,42.8102948 L8.30645567,42.8102948 L2.62851185,36.9347563 C5.29220699,34.4859768 8.37426348,32.6493923 11.8823577,31.4262793 C15.3853343,30.2025279 18.8889506,29.5896947 22.3964051,29.5896947 Z M134.212685,29.589567 C137.855755,29.589567 140.993465,30.0447234 143.622617,30.9524826 C146.251129,31.8627953 148.406905,33.0884617 150.089306,34.6250134 C151.771067,36.1660336 153.015277,37.9311209 153.820654,39.924744 C154.625392,41.9190055 155.02968,44.0007233 155.02968,46.1667058 L155.02968,46.1667058 L155.02968,71.5597058 C155.02968,73.3081956 155.064863,74.9168828 155.13459,76.3864058 C155.204317,77.8559288 155.309227,79.2552313 155.4506,80.5830367 L155.4506,80.5830367 L147.039234,80.5830367 C146.830054,78.0646751 146.723224,75.5456752 146.723224,73.0292288 L146.723224,73.0292288 L146.514044,73.0292288 C144.410722,76.2466032 141.921664,78.5217466 139.048789,79.8495519 C136.173994,81.1773572 132.845014,81.8412599 129.059932,81.8412599 C126.746151,81.8412599 124.538559,81.5278212 122.435877,80.8983904 C120.332556,80.2676829 118.49215,79.3248134 116.915299,78.0646751 C115.338447,76.8064519 114.093599,75.2507492 113.183951,73.3962904 C112.272383,71.5437466 111.81628,69.3918083 111.81628,66.9430288 C111.81628,63.7256544 112.535299,61.0323801 113.972696,58.8644825 C115.408174,56.6959466 117.371402,54.9295825 119.86046,53.5647519 C122.346959,52.1999212 125.256938,51.2225799 128.585917,50.6257059 C131.914896,50.0339388 135.473526,49.7345442 139.258609,49.7345442 L139.258609,49.7345442 L146.197394,49.7345442 L146.197394,47.6362288 C146.197394,46.3780056 145.951111,45.1172289 145.462383,43.859644 C144.971736,42.6007824 144.234166,41.4638491 143.254791,40.4494825 C142.270939,39.4370309 141.0472,38.6314106 139.574619,38.0351749 C138.102038,37.4427695 136.348631,37.1433749 134.317595,37.1433749 C132.493821,37.1433749 130.900338,37.3202028 129.532667,37.6681134 C128.166916,38.0185774 126.920148,38.455221 125.801319,38.9799595 C124.678013,39.5040596 123.661535,40.1168928 122.751887,40.8159057 C121.83968,41.5168337 120.963297,42.1807363 120.122736,42.8101671 L120.122736,42.8101671 L114.444792,36.9346286 C117.108487,34.4858492 120.191183,32.6492646 123.698638,31.4261516 C127.201614,30.2024003 130.705231,29.589567 134.212685,29.589567 Z M212.707892,29.5896947 C216.350322,29.5896947 219.488032,30.0448511 222.117184,30.9526103 C224.745695,31.862923 226.901472,33.0885894 228.583873,34.625141 C230.265634,36.1661613 231.509843,37.9306103 232.315221,39.9242333 C233.119959,41.9191332 233.524887,44.000851 233.524887,46.1668334 L233.524887,46.1668334 L233.524887,71.5598335 C233.524887,73.3076849 233.55943,74.9170105 233.629157,76.3865335 C233.698884,77.8554181 233.803794,79.255359 233.945807,80.5831643 L233.945807,80.5831643 L225.533801,80.5831643 C225.32462,78.0648028 225.217791,75.5458029 225.217791,73.0293565 L225.217791,73.0293565 L225.007971,73.0293565 C222.905289,76.2467309 220.416231,78.5212359 217.543355,79.8490412 C214.668561,81.1774849 211.339581,81.8413875 207.555138,81.8413875 C205.240717,81.8413875 203.033126,81.5273105 200.929804,80.8985181 C198.827123,80.2678106 196.986717,79.3249411 195.410505,78.0648028 C193.833014,76.8065796 192.588165,75.2508769 191.679157,73.396418 C190.76695,71.5438743 190.310847,69.3919359 190.310847,66.9431565 C190.310847,63.7257821 191.029865,61.0325077 192.467263,58.8639718 C193.902741,56.6960743 195.865329,54.9297102 198.355027,53.5648795 C200.842166,52.2000489 203.752144,51.2227076 207.080484,50.6258335 C210.409463,50.0334281 213.968093,49.7346719 217.752536,49.7346719 L217.752536,49.7346719 L224.691961,49.7346719 L224.691961,47.6363564 C224.691961,46.3781332 224.445678,45.1173565 223.95695,43.8597717 C223.466303,42.6009101 222.729373,41.4639768 221.749358,40.4496102 C220.765505,39.4371586 219.541766,38.6315383 218.069186,38.0353026 C216.597245,37.4428971 214.843198,37.1435026 212.812162,37.1435026 C210.988388,37.1435026 209.394905,37.3196921 208.027234,37.668241 C206.661483,38.018705 205.414715,38.4553487 204.295886,38.9800871 C203.172579,39.5041872 202.156102,40.1170205 201.246454,40.8160334 C200.334887,41.5169614 199.457863,42.180864 198.617302,42.8102948 L198.617302,42.8102948 L192.939359,36.9347563 C195.603054,34.4859768 198.68575,32.6493923 202.193204,31.4262793 C205.696821,30.2025279 209.199797,29.5896947 212.707892,29.5896947 Z M89.0702809,29.5897585 C92.4344435,29.5897585 95.6585125,30.218551 98.7424881,31.4774126 C101.827103,32.7381892 104.279059,34.8365047 106.102833,37.7723588 L106.102833,37.7723588 L98.7424881,43.3344587 C97.6211006,41.9370713 96.2348788,40.7650278 94.5902198,39.8196048 C92.9410829,38.8754586 90.9266794,38.4043431 88.5444506,38.4043431 C86.2997565,38.4043431 84.3550799,38.8754586 82.7078621,39.8196048 C81.061284,40.7650278 80.2379949,42.146456 80.2379949,43.9638895 C80.2379949,45.4327741 80.7100908,46.6239687 81.6568412,47.5317279 C82.6035916,48.4414023 83.7224204,49.1755254 85.020364,49.7347357 C86.3183077,50.2958611 87.7026104,50.7165456 89.1751911,50.994874 C90.6477719,51.2738408 91.9079734,51.5196125 92.9596341,51.7289972 C94.9925887,52.2186254 96.9027217,52.814861 98.6893933,53.5119588 C100.477984,54.2122485 102.018373,55.1225611 103.315676,56.2416202 C104.611701,57.3600408 105.630737,58.7255098 106.365748,60.3316436 C107.100759,61.9428842 107.470504,63.899482 107.470504,66.2090972 C107.470504,69.0064255 106.872388,71.4022204 105.681913,73.3964819 C104.48824,75.390105 102.948491,77.0153897 101.05499,78.2761664 C99.1634082,79.5337513 97.0076319,80.444064 94.5902198,81.0032743 C92.1708886,81.5624846 89.735565,81.840813 87.2816902,81.840813 C83.146054,81.840813 79.5170573,81.2120206 76.3998175,79.9537974 C73.2800189,78.6936591 70.4935021,76.3865973 68.0415464,73.0294203 L68.0415464,73.0294203 L75.1901519,67.1519667 C76.7324595,68.6929869 78.4487646,70.0559024 80.3422654,71.2445435 C82.2357663,72.4350998 84.5482682,73.0294203 87.2816902,73.0294203 C88.4728046,73.0294203 89.6824702,72.9062153 90.9100473,72.6604436 C92.1344259,72.4165871 93.2225492,72.0310128 94.1692997,71.5069128 C95.1160501,70.9821743 95.8862444,70.3182717 96.4818016,69.5126513 C97.0773588,68.7089461 97.3748175,67.7833126 97.3748175,66.7338357 C97.3748175,65.3338948 96.937905,64.1803639 96.0608814,63.2706896 C95.1838579,62.3629304 94.1321973,61.6434897 92.9065393,61.1187512 C91.6802416,60.5940128 90.384217,60.1758818 89.0165464,59.860528 C87.6495156,59.5451743 86.4417691,59.282805 85.3901085,59.0734203 C83.3552347,58.5857072 81.4284696,58.0245818 79.6072544,57.395151 C77.7834805,56.7657202 76.1714459,55.925628 74.7692318,54.8761511 C73.3663779,53.8273126 72.2469095,52.4995073 71.405709,50.8882666 C70.563229,49.2821328 70.144228,47.2878714 70.144228,44.9086741 C70.144228,42.3220072 70.6866904,40.0660149 71.7728946,38.1413355 C72.8590988,36.2172945 74.297136,34.6252049 76.0838076,33.3669817 C77.8717586,32.1081201 79.9027941,31.1639739 82.1826715,30.5345431 C84.4599901,29.9031972 86.7558599,29.5897585 89.0702809,29.5897585 Z M61.8566433,1.26032983 L61.8566433,80.583292 L52.3936169,80.583292 L52.3936169,1.26032983 L61.8566433,1.26032983 Z M185.582404,5.68434189e-14 C186.634065,5.68434189e-14 187.73882,0.0363869727 188.895391,0.106607446 C190.050682,0.176189552 191.295531,0.384935869 192.626739,0.73539987 L192.626739,0.73539987 L191.574439,9.12929995 C190.662872,8.77947431 189.788407,8.53561776 188.946567,8.39390008 C188.106006,8.2540975 187.195078,8.18515376 186.212505,8.18515376 C184.461017,8.18515376 183.058802,8.44688462 182.007142,8.97162307 C180.956121,9.49636151 180.132192,10.248359 179.536635,11.2276154 C178.941078,12.2075102 178.555341,13.378277 178.380704,14.7424693 C178.204148,16.1072999 178.117789,17.6649177 178.117789,19.410854 L178.117789,19.410854 L178.117789,30.8484925 L189.367487,30.8484925 L189.367487,39.0330079 L178.012878,39.0330079 L178.012878,80.5831005 L168.550492,80.5831005 L168.550492,39.0330079 L157.824065,39.0330079 L157.824065,30.8484925 L168.550492,30.8484925 L168.550492,19.7268462 C168.550492,13.0827126 169.827325,8.13153085 172.38611,4.87904619 C174.944895,1.62656152 179.344086,5.68434189e-14 185.582404,5.68434189e-14 Z M34.3811141,56.659049 L29.3351902,56.659049 C27.0911358,56.659049 24.795266,56.782254 22.4475808,57.0280256 C20.0986162,57.2737973 17.9607513,57.7455512 16.0339863,58.4439257 C14.1059418,59.1429386 12.5290906,60.1228334 11.3027929,61.3810566 C10.0745761,62.6411949 9.46302648,64.2498822 9.46302648,66.2090334 C9.46302648,69.0778589 10.4257693,71.1397874 12.3544535,72.3986489 C14.2805789,73.6581489 16.8930983,74.2875797 20.1868942,74.2875797 C22.7802228,74.2875797 24.9878145,73.850936 26.8115885,72.9763719 C28.6334434,72.1030846 30.1053844,70.9655129 31.2267719,69.5662104 C32.3481595,68.168823 33.1548164,66.6105668 33.6461031,64.8978256 C34.1348311,63.1844461 34.3811141,61.4876641 34.3811141,59.8068413 L34.3811141,59.8068413 L34.3811141,56.659049 Z M146.197394,56.6589213 L141.15147,56.6589213 C138.907416,56.6589213 136.611546,56.7821263 134.263861,57.0285363 C131.914896,57.2736696 129.777031,57.7454235 127.850906,58.443798 C125.922222,59.1428109 124.345371,60.1227057 123.119073,61.3809289 C121.890856,62.6417056 121.279306,64.2497545 121.279306,66.2089057 C121.279306,69.0783696 122.242689,71.1396597 124.170733,72.3985213 C126.096859,73.6580212 128.709378,74.287452 132.003174,74.287452 C134.596503,74.287452 136.804094,73.8508083 138.627868,72.9762443 C140.449723,72.1029569 141.921664,70.9660236 143.043052,69.5660827 C144.164439,68.1686953 144.971736,66.6104391 145.462383,64.8976979 C145.951111,63.1843184 146.197394,61.4875364 146.197394,59.8067136 L146.197394,59.8067136 L146.197394,56.6589213 Z M224.691961,56.659049 L219.646037,56.659049 C217.401983,56.659049 215.106113,56.782254 212.759067,57.0280256 C210.409463,57.2737973 208.271598,57.7455512 206.345473,58.4439257 C204.417428,59.1429386 202.839937,60.1228334 201.614279,61.3810566 C200.386063,62.6411949 199.773873,64.2498822 199.773873,66.2090334 C199.773873,69.0778589 200.737256,71.1397874 202.6653,72.3986489 C204.591426,73.6581489 207.203945,74.2875797 210.497741,74.2875797 C213.09107,74.2875797 215.298661,73.850936 217.122435,72.9763719 C218.94429,72.1030846 220.416231,70.9655129 221.537619,69.5662104 C222.659006,68.168823 223.466303,66.6105668 223.95695,64.8978256 C224.445678,63.1844461 224.691961,61.4876641 224.691961,59.8068413 L224.691961,59.8068413 L224.691961,56.659049 Z" id="Combined-Shape"></path>
        </g>
    </g>
</svg>