<?xml version="1.0" encoding="UTF-8"?>
<svg width="127px" height="56px" viewBox="0 0 127 56" version="1.1" xmlns="http://www.w3.org/2000/svg" xmlns:xlink="http://www.w3.org/1999/xlink">
    <title>Alsafa News/media/icons/graphical/send</title>
    <defs>
        <polygon id="path-1" points="0.118752013 0.00616623529 84.1415623 0.00616623529 84.1415623 19.4955192 0.118752013 19.4955192"></polygon>
        <polygon id="path-3" points="0 0.0770615882 3.43360692 0.0770615882 3.43360692 5.25036359 0 5.25036359"></polygon>
    </defs>
    <g id="Symbols" stroke="none" stroke-width="1" fill="none" fill-rule="evenodd">
        <g id="Group-55" transform="translate(63.500000, 28.000000) scale(-1, 1) translate(-63.500000, -28.000000) ">
            <g id="Group-21" transform="translate(2.000000, 2.396660)" fill="#FFE9AF">
                <path d="M41.7520088,26.9606732 C41.7714311,26.9526201 41.7905891,26.9479835 41.8092187,26.9448111 C41.8674855,26.772891 41.9256202,26.601825 41.9841513,26.431369 C39.9288249,27.0653627 38.0056228,27.9834089 36.0632627,28.8635082 C35.6605477,29.0459217 35.2553223,29.2235766 34.8497005,29.4004994 C35.0579285,29.5641225 35.2669492,29.7268914 35.4783482,29.886488 C36.4934596,29.2778736 37.5816358,28.8160441 38.6810425,28.3521404 C39.7198041,27.9138599 40.7090192,27.3907786 41.7520088,26.9606732" id="Fill-1"></path>
                <path d="M36.3410409,30.61581 C36.552572,30.7673432 36.7641031,30.9188765 36.9749736,31.071239 C37.695844,30.7981475 38.3740383,30.4457943 39.1115565,30.1960429 C39.7439036,29.9819534 40.3656808,29.6181078 41.0393829,29.5311451 C41.1140332,29.2696644 41.1918544,29.0090131 41.2729788,28.749665 C40.5139244,29.0864976 39.7038699,29.3569826 38.9375487,29.6755696 C38.0904995,30.0278043 37.2274632,30.3518413 36.3410409,30.61581" id="Fill-3"></path>
                <path d="M49.2697523,15.3046228 C48.771115,16.1594647 47.9556435,16.807828 47.301628,17.5494023 C46.5506332,18.4012872 45.7654181,19.3656681 45.1811642,20.3393059 C45.0808819,20.5065715 44.8171617,20.3507484 44.917444,20.183097 C45.4036617,19.3688823 46.0496176,18.5488821 46.6786617,17.8290355 C47.4519855,16.9438518 48.4632653,16.1833781 49.1232264,15.2179686 C49.1844,15.128486 49.3245839,15.2107689 49.2697523,15.3046228 M44.2946098,19.8729934 C45.3061539,18.2715631 46.7607109,16.9222526 48.131501,15.6176834 C48.2099829,15.5431145 48.3221565,15.6585677 48.2486953,15.7358364 C46.9570477,17.0923467 45.5828223,18.4624851 44.5535736,20.0262453 C44.4485347,20.1860541 44.1919492,20.0356307 44.2946098,19.8729934 M43.7371772,19.719613 C44.3186565,18.9344545 44.8874518,18.1663953 45.556001,17.4473201 C45.9555451,17.0176493 46.5420451,16.2004775 47.1429466,16.0530112 C47.1808663,16.0437544 47.2161435,16.0950526 47.1821876,16.1211517 C45.9066591,17.0987751 44.9446617,18.6107228 44.0133171,19.8828931 C43.8930839,20.0472017 43.6152264,19.8843073 43.7371772,19.719613 M43.0480166,19.3261981 C43.3176824,18.7902023 43.8443301,18.323247 44.2590684,17.8921619 C44.767615,17.3637516 45.3061539,16.8713401 45.8660969,16.3949994 C45.9600373,16.3150307 46.0917653,16.4456548 46.001128,16.5311518 C45.4686668,17.0324345 44.9344881,17.5386027 44.4505166,18.0850124 C44.0616746,18.5241972 43.5866876,18.9667248 43.2997135,19.4750786 C43.2072264,19.638873 42.9658352,19.4897353 43.0480166,19.3261981 M42.6131953,19.2266872 C42.8985839,18.6096943 43.4939363,18.0766555 43.9350995,17.5613591 C44.0735658,17.3997504 44.4333404,16.8088565 44.6786953,16.7719578 C44.6957394,16.7693864 44.705913,16.7839145 44.6991746,16.7988283 C44.2638249,17.7527953 43.3229674,18.4411429 42.8502264,19.3669538 C42.7696306,19.5247055 42.5415839,19.3818676 42.6131953,19.2266872 M42.075185,18.9070697 C42.5349777,18.3487033 42.9339933,17.7443099 43.4122834,17.1971288 C43.4825736,17.116903 43.6276461,17.2295277 43.5607912,17.3127105 C43.296014,17.6411992 43.0640036,17.9918013 42.8074181,18.3259469 C42.6153093,18.5758811 42.4743326,18.8601427 42.2598948,19.0931061 C42.143229,19.2198732 41.971071,19.0335796 42.075185,18.9070697 M50.7683067,13.499028 C48.8490684,12.6930416 46.8114466,12.3010409 44.7721073,11.8999119 C42.5946979,11.4715267 40.4544155,10.8465626 38.3231176,10.2404978 C33.9881176,9.00766901 29.667387,7.73897 25.300413,6.61580882 C23.6924596,6.20220883 22.0819959,5.79825137 20.4710036,5.39622241 C19.8420917,5.74116763 19.190058,6.05384253 18.5252083,6.27420635 C18.3690373,6.32601884 18.2670373,6.0789131 18.4173948,6.0130868 C18.9000451,5.80159411 19.3423974,5.5150183 19.7819751,5.22432835 C19.602286,5.17958704 19.4228611,5.13446003 19.2433041,5.08984728 C18.8847187,5.26572692 18.529172,5.44276366 18.1971435,5.64229962 C18.0282886,5.7436104 17.8908793,5.49110484 18.0487679,5.38503708 C18.2614881,5.24207059 18.4785684,5.09768987 18.6986876,4.95395198 C16.5087264,4.40972793 14.3183689,3.86756096 12.1309181,3.31395152 C10.0302731,2.78232704 7.94627565,2.19233315 5.87892591,1.54949823 C3.99073679,0.962461375 2.02446218,0.138732705 0.027534715,0.002066 C2.55190259,0.543590139 5.8848715,2.27988727 8.48111503,3.62251229 C11.625014,5.24824181 14.7982446,6.82768722 17.9866694,8.37241954 C18.2922731,8.29167947 18.6636746,8.30697894 18.9695425,8.30003632 C19.0903041,8.29733642 19.0961176,8.46794481 18.9778663,8.48067294 C18.8004233,8.49995798 18.6231124,8.52271434 18.4461979,8.54688493 C18.4222834,8.55022768 18.3978404,8.55459895 18.3735295,8.55858453 C18.5455554,8.64176737 18.7179777,8.72443594 18.8901358,8.80736164 C19.2550632,8.78023401 19.6174803,8.73459273 19.9719699,8.63366765 C20.0993378,8.59741176 20.1628896,8.78691949 20.0356539,8.82420392 C19.7825036,8.89812994 19.5272394,8.95071383 19.2701254,8.99044103 C19.4183689,9.06179571 19.5666124,9.13353608 19.7149881,9.20476219 C20.3070373,9.15024979 20.9000114,9.09650879 21.4928534,9.05613876 C21.5897005,9.04958184 21.5931358,9.18856275 21.4995917,9.20064805 C21.0390062,9.260046 20.5782886,9.3414289 20.1157212,9.39774124 C20.2650218,9.46909591 20.4139259,9.54186483 20.5630943,9.6132195 C20.6439544,9.6517896 20.7245503,9.6903597 20.8052782,9.72892979 C21.6704285,9.62350486 22.5275192,9.47346719 23.3917446,9.36251388 C23.4896487,9.34991432 23.4929518,9.49468074 23.3984829,9.50985165 C22.6581902,9.62800471 21.9222575,9.81211263 21.1766798,9.9064808 C21.4335295,10.0291337 21.6903793,10.1517866 21.9470969,10.2746966 C22.8274415,10.0800462 23.7508585,10.0050917 24.6386021,9.86341086 C24.7258041,9.84939706 24.7530218,9.99634912 24.6664803,10.0125486 C23.8917031,10.1578293 23.1041098,10.3370516 22.3174415,10.4517334 C22.5140425,10.5458444 22.7105114,10.6398269 22.9071124,10.7338093 C23.9855114,10.5887858 25.0554544,10.4031351 26.1288326,10.2267412 C26.2469518,10.2073275 26.2534259,10.3878356 26.1371565,10.4073778 C25.1812368,10.5687293 24.2309984,10.7698081 23.2708508,10.9077605 C23.4986332,11.0167853 23.7264155,11.1255529 23.9541979,11.2344492 C25.1891642,11.0476414 26.4279622,10.9152174 27.6378249,10.5962427 C27.765457,10.5625581 27.8294052,10.7516802 27.7013767,10.7867789 C26.6065943,11.0868543 25.4834052,11.2650481 24.3594233,11.4280711 C24.6429622,11.5635807 24.9263689,11.6990903 25.2099078,11.8343427 C26.5756772,11.569109 27.9401254,11.2012789 29.3212212,11.0534269 C29.4179363,11.0431415 29.4204466,11.1836652 29.3278275,11.1979362 C28.0739674,11.3910438 26.8629155,11.7776447 25.6198896,12.0295074 C25.9005218,12.1632171 26.1810218,12.2967982 26.4616539,12.4303793 C26.4706383,12.4240795 26.4794907,12.4179083 26.4911176,12.414437 C27.2355062,12.187002 28.0314233,12.0818342 28.791799,11.9008119 C29.5108197,11.7295606 30.2159674,11.586337 30.9591668,11.5778516 C31.0546927,11.5766945 31.0618275,11.7181182 30.9657731,11.7223609 C29.5443793,11.7857444 28.193672,12.3306113 26.7992316,12.5907023 C27.0402264,12.7051269 27.2814855,12.8190373 27.5226124,12.9333333 C29.1543482,12.6949701 30.8140943,12.235086 32.4618171,12.1494604 C32.5005295,12.1475319 32.5110995,12.20333 32.4739725,12.2146439 C31.0363275,12.6490717 29.4725036,12.9598181 27.9615295,13.1410976 C28.3215684,13.3113203 28.6818715,13.4807715 29.0421746,13.6500943 C30.6892368,13.3402478 32.3561176,13.1428975 34.002387,12.8153088 C34.0729415,12.801295 34.1094078,12.8986202 34.0376642,12.9211195 C32.578615,13.380875 30.9969544,13.6803075 29.4596876,13.846416 C29.7952834,14.003782 30.1311435,14.1602481 30.4668715,14.3167141 C32.0406047,14.0634371 33.6025788,13.7381626 35.1882031,13.5607402 C35.232729,13.5557261 35.2467342,13.6282379 35.2023404,13.6365947 C33.7571642,13.9108281 32.3274466,14.2462594 30.8802886,14.5091788 C31.1586746,14.6386458 31.437457,14.7674699 31.7162394,14.8961655 C32.4482083,14.769527 33.1685503,14.587219 33.9065969,14.4859082 C34.7441332,14.3710979 35.5829907,14.2850866 36.3991228,14.0597087 C36.4593715,14.042995 36.488571,14.1297777 36.4292472,14.1497056 C35.6083585,14.4245818 34.7717472,14.579505 33.9171668,14.7138575 C33.3100554,14.8092542 32.7144389,14.959549 32.1130088,15.0788592 C32.5022472,15.257953 32.8918819,15.4362754 33.2817808,15.6139549 C34.666444,15.3867771 36.0624699,15.1711703 37.4351098,14.9154505 C37.5176876,14.9000225 37.5612886,15.0130329 37.4765969,15.0397748 C36.5924207,15.3190223 35.6231565,15.3835629 34.7108378,15.5555855 C34.3511953,15.6233403 33.9935347,15.6997091 33.6356098,15.7745351 C37.451229,17.506461 41.3033145,19.1604752 45.2338819,20.6539093 C45.2773508,20.6704945 45.3138171,20.6924794 45.3471124,20.71665 C47.0024984,18.1780949 49.660444,16.3017883 50.9084907,13.5339983 C50.8640969,13.5292413 50.8178534,13.5198559 50.7683067,13.499028" id="Fill-5"></path>
                <path d="M32.9394202,28.6736359 C34.1838995,28.0674826 35.4607492,27.5258961 36.7002078,26.9100578 C37.5529383,26.4863703 38.3686741,25.9824909 39.2491508,25.6161388 C37.161586,24.6395011 35.4425161,23.0268803 33.5539306,21.7577549 C33.4457207,21.6850527 33.5425679,21.534612 33.6587052,21.5894938 C35.8910782,22.6461943 37.632213,24.5847484 39.9804591,25.4697012 C40.2421974,25.5683593 40.1182648,25.9821035 39.8567907,25.8798297 C39.8130575,25.862784 39.7706456,25.8432848 39.7271767,25.8255935 C39.7047155,25.8829289 39.6597933,25.9329036 39.5869927,25.9591177 C38.4351326,26.3731202 37.3780057,27.0419032 36.2593088,27.5359685 C35.1916119,28.0076937 34.1044927,28.4368048 33.0139383,28.8549395 C32.9067855,28.896004 32.8386093,28.7228358 32.9394202,28.6736359 M8.70107565,7.30795936 C6.31002124,6.07137567 4.28574404,4.30986375 2.02139689,2.87815914 C1.76666114,2.71700036 2.01095907,2.3213349 2.26661969,2.48417242 C4.52118964,3.91988017 6.49565596,5.79360922 8.82144093,7.11464631 C8.95131917,7.18838162 8.83227513,7.37588366 8.70107565,7.30795936 M41.0118218,25.7354583 C39.5900316,25.105157 38.2592751,24.2081948 37.0013192,23.3357679 C35.2144694,22.0963433 33.4034409,20.8895895 31.5543606,19.7403001 C28.0180523,17.542833 24.3168528,15.6906693 20.6663891,13.6915515 C16.9308373,11.6459456 13.3242389,9.39553371 9.76877254,7.06596293 C6.53938912,4.94997918 3.21263005,2.91173388 0.0608036269,0.681596 C1.87566373,3.32638199 3.9111715,5.82227689 5.60513782,8.54441392 C7.53388912,11.6440086 9.48747979,14.7296568 11.3240083,17.8827128 C13.0585368,20.8606635 14.835213,23.8600505 16.3538503,26.9495727 C17.0879332,28.4428741 17.6799824,29.9652305 18.2463995,31.5241317 C18.7552104,32.9241986 19.1041508,34.3954181 19.8752285,35.687271 C21.2069098,34.7294868 22.7379668,34.0752958 24.2388995,33.4036718 C26.1936793,32.5287914 28.1277155,31.6049694 30.0721896,30.7077489 C32.134915,29.756034 34.2166663,28.8437049 36.2578554,27.8480845 C37.8173192,27.0874874 39.3804824,26.3317974 41.0118218,25.7354583" id="Fill-7"></path>
                <path d="M37.1480433,31.2731363 C37.3536288,31.4170165 37.5592142,31.5608967 37.7622894,31.7077458 C37.7700847,31.713227 37.7770873,31.7196217 37.7848826,31.725217 C38.7921987,31.425695 39.8054604,31.0254569 40.773007,30.634354 C40.8183256,30.4546179 40.8657583,30.2751103 40.9157013,30.095831 C40.2567972,30.2432511 39.5729215,30.5347798 38.9400459,30.719426 C38.3398049,30.8947086 37.7526443,31.109387 37.1480433,31.2731363" id="Fill-9"></path>
                <path d="M35.6375845,30.0451839 C35.8255974,30.1846112 36.0136104,30.3244006 36.2026803,30.4625 C37.9804135,29.8231868 39.7130922,28.9378538 41.4103617,28.1391951 C41.4205352,28.1344872 41.4304446,28.13159 41.440486,28.1283307 C41.5053591,27.926131 41.5712891,27.724897 41.638144,27.524508 C40.6118021,27.9629494 39.6204731,28.4657326 38.569556,28.8563703 C37.5782269,29.2247963 36.5826699,29.5851343 35.6375845,30.0451839" id="Fill-11"></path>
                <path d="M44.9866111,21.5436123 C40.8911526,20.2130717 36.9362744,18.3635222 33.0553858,16.5335774 C29.0620593,14.6506226 25.0819453,12.7331015 21.1198003,10.788366 C17.0387433,8.78546123 12.9884712,6.72064689 8.98549974,4.57238355 C7.4987044,3.7745235 5.79469663,3.17271054 4.33194793,2.33551209 C3.17612409,1.67385317 2.16458005,1.04805024 0.908077461,0.561028 C4.07694793,2.36414528 7.08594793,4.49460961 10.1563858,6.43508883 C13.6513391,8.64397199 17.1692821,10.8331215 20.8112899,12.8058453 C24.4683598,14.7865657 28.1905671,16.607482 31.7341422,18.7867002 C33.5850723,19.9250631 35.407992,21.1068916 37.1973521,22.3356683 C38.7262951,23.3854231 40.3633158,24.5396503 42.1344427,25.1533293 C42.2351215,25.1882824 42.3085826,25.2451619 42.3606396,25.3131335 C42.6966319,25.399549 42.7763028,25.9585411 42.3725308,26.1057054 C42.1162096,27.4078708 41.8943728,28.71081 41.6861448,30.015555 C42.0542433,29.246973 42.4259091,28.4829053 42.7678469,27.7189666 C43.666821,25.7099998 44.5085852,23.6996144 45.1595619,21.6011367 C45.1505775,21.5901735 45.1430464,21.5783075 45.1351189,21.5665705 C45.0886111,21.5664415 45.039593,21.5608954 44.9866111,21.5436123" id="Fill-13"></path>
                <path d="M38.0443352,32.0419402 C38.2419933,32.1994401 38.4277601,32.3651188 38.6106202,32.532345 C39.2528767,32.3036663 39.8899803,32.0645981 40.532501,31.836472 C40.5708171,31.6417248 40.6127005,31.4470881 40.6584155,31.252562 C40.2324466,31.391604 39.7947187,31.5086512 39.3707316,31.6517827 C38.9351176,31.7987825 38.5000321,31.9488771 38.0443352,32.0419402" id="Fill-15"></path>
                <path d="M40.0563909,33.861369 C40.1377795,33.6939555 40.2245852,33.5273486 40.3156189,33.361369 C40.0619402,33.4501842 39.7922744,33.5252873 39.5197018,33.5813905 C39.6861785,33.6828424 39.8654712,33.7758698 40.0563909,33.861369" id="Fill-17"></path>
                <path d="M38.8472813,32.8842838 C38.9816518,32.9952601 39.1169472,33.1055366 39.2573953,33.211614 C39.6624886,33.0902399 40.018828,32.9101783 40.4014601,32.7507123 C40.4166544,32.6542328 40.4340948,32.5577534 40.4517995,32.461174 C40.2129187,32.5318589 39.9589756,32.5818483 39.7235301,32.6470344 C39.4316674,32.7279171 39.1413902,32.8101996 38.8472813,32.8842838" id="Fill-19"></path>
            </g>
            <g id="Group-54" transform="translate(0.000000, 0.396660)">
                <path d="M40.2765445,33.9533051 C40.0945152,33.7542472 39.909461,33.5570313 39.7128326,33.3695511 C40.1664589,33.258905 40.5995674,33.0801081 41.0332021,32.9051267 C41.4551311,32.73475 41.8908701,32.5955542 42.3150351,32.4300454 C42.2695278,32.6615998 42.2278347,32.8931542 42.1896927,33.1249718 C41.5500914,33.3966535 40.9158827,33.6812287 40.2765445,33.9533051 M42.0592209,34.0344807 C41.6783273,34.2443269 41.3236071,34.4812755 40.9203545,34.641127 C40.7805445,34.501405 40.6458639,34.3562887 40.512104,34.2102516 C40.8048764,34.1127619 41.0938347,34.0044839 41.3843712,33.8980478 C41.618747,33.8122674 41.8715361,33.7464849 42.1093315,33.6534684 C42.0917073,33.7806918 42.0743461,33.9075205 42.0592209,34.0344807 M41.7156802,35.2988205 C41.525628,35.1731759 41.3472814,35.0366114 41.1815612,34.8878114 C41.4527637,34.8054517 41.7212042,34.6952002 41.9737303,34.5646877 C41.8832418,34.8084777 41.796699,35.0529255 41.7156802,35.2988205 M39.4321603,33.1161569 C39.2298764,32.9469643 39.0252251,32.7811924 38.8205737,32.6154205 C39.4224276,32.4267563 40.0069203,32.179414 40.6045653,31.9774617 C41.2344338,31.7647211 41.9152021,31.4289672 42.5711123,31.2589852 C42.5213962,31.4655423 42.4741791,31.6723625 42.4290664,31.8794458 C41.4659161,32.330056 40.45739,32.7911913 39.4545194,33.1362864 C39.4467595,33.1298397 39.4399203,33.1226036 39.4321603,33.1161569 M38.0172251,31.9685153 C38.8997511,31.67552 39.7587344,31.3155582 40.6020664,30.9245469 C41.3647741,30.5706371 42.1711478,30.2702741 42.9267532,29.8962348 C42.846129,30.1843622 42.7685299,30.4736736 42.6942188,30.7640376 C42.0235779,30.8606063 41.4047574,31.2646425 40.7752835,31.5023805 C40.040985,31.7797195 39.3660038,32.1709939 38.6484088,32.4742512 C38.4383649,32.3050586 38.227795,32.136787 38.0172251,31.9685153 M37.3169912,31.4031805 C38.2577825,30.9019178 39.2488159,30.5090646 40.2356405,30.1076598 C41.2817825,29.6817838 42.2686071,29.1338155 43.2902856,28.6559714 C43.2237344,28.8743693 43.158104,29.0936882 43.0935257,29.3140596 C43.0835299,29.3177434 43.0736656,29.3207694 43.0635382,29.3259005 C41.3739808,30.1963346 39.6491749,31.1612324 37.8795194,31.8580007 C37.6913086,31.7074903 37.5041499,31.555138 37.3169912,31.4031805 M36.5327136,30.7508811 C36.9364923,30.5601119 37.3398764,30.3685532 37.7407616,30.1718635 C39.674296,29.2228851 41.5887595,28.2329899 43.634747,27.5493781 C43.5764818,27.7331744 43.5184797,27.9176286 43.4606092,28.1030037 C43.4419328,28.1064243 43.4229933,28.1114238 43.4036593,28.1201071 C42.3654088,28.5838738 41.3806885,29.1480246 40.3466468,29.6204745 C39.252104,30.1206847 38.1690038,30.6186583 37.1585048,31.2750361 C36.9479349,31.1028175 36.7399954,30.9273098 36.5327136,30.7508811 M31.7768054,32.0738989 C29.8411666,32.9880126 27.9159182,33.9292287 25.970152,34.8205817 C24.4759077,35.5048513 22.951939,36.1713597 21.626177,37.1470458 C20.8586029,35.8308694 20.511248,34.3320808 20.0048806,32.9056529 C19.4410372,31.3174001 18.8516781,29.7663801 18.1209307,28.2449623 C16.6090622,25.0972694 14.8404589,22.0414088 13.1139432,19.007388 C11.2857595,15.7948335 9.34104551,12.6510875 7.42092651,9.49326407 C5.73478873,6.71974202 3.70839833,4.17698501 1.90191608,1.48240196 C5.03942129,3.75452975 8.3510643,5.83115192 11.5657741,7.98697623 C15.1050852,10.3604091 18.695296,12.6531926 22.4138743,14.7373139 C26.0477511,16.7740719 29.7321332,18.6611089 33.2522418,20.8999507 C35.0929203,22.0708794 36.8958514,23.3003544 38.674582,24.5631154 C39.9266906,25.4519686 41.2515319,26.3658192 42.6667303,27.0079881 C41.0429349,27.6155553 39.4868743,28.3854737 37.9343649,29.1603917 C35.902582,30.1747579 33.8301582,31.1042647 31.7768054,32.0738989 M7.69357578,2.37796501 C9.75153194,3.03579008 11.8260601,3.63954193 13.9170288,4.18369482 C16.0946718,4.75021377 18.2750768,5.30502343 20.4549557,5.86180657 C20.2359683,6.00889625 20.0198743,6.15677533 19.8079891,6.30294406 C19.6509495,6.41161676 19.7877344,6.67001045 19.9558221,6.56620565 C20.286342,6.36201675 20.6402731,6.18085173 20.9972292,6.00087079 C21.1759704,6.04665541 21.35458,6.09270317 21.5334526,6.13848779 C21.0958722,6.43595629 20.6553983,6.72934627 20.1750727,6.94563915 C20.0253983,7.01300044 20.1269349,7.26586839 20.2822647,7.21284769 C20.9442251,6.98734526 21.593296,6.66737915 22.2193503,6.31439021 C23.8230225,6.72579401 25.4260372,7.13917128 27.0268159,7.56241593 C31.3739474,8.71189945 35.6750455,10.010183 39.9903482,11.2716284 C42.111962,11.8918258 44.2425194,12.5313634 46.4100351,12.969738 C48.4399766,13.3802208 50.4684714,13.7813626 52.3789891,14.6061436 C52.4283106,14.6274572 52.4743441,14.6370614 52.5185361,14.6419293 C51.2761603,17.4743925 48.6302919,19.3943207 46.982296,21.9920719 C46.949152,21.9673377 46.9129829,21.9449716 46.8697115,21.9279998 C42.9570038,20.399609 39.1224213,18.7071567 35.3241395,16.9348444 C35.680438,16.858142 36.0364735,16.7801239 36.3943503,16.7106576 C37.3026551,16.5347552 38.2675152,16.4687095 39.1476739,16.1828187 C39.2319808,16.1555848 39.1885779,16.0398076 39.1063754,16.0555954 C37.7399724,16.3174098 36.3502898,16.5379127 34.9719182,16.7703881 C34.5836593,16.5886968 34.1959265,16.4060846 33.8084568,16.2228145 C34.4071541,16.1008537 34.9999328,15.9469227 35.6044171,15.8493014 C36.4551144,15.711816 37.2879244,15.5534117 38.1050831,15.2719942 C38.1640058,15.2516016 38.1350706,15.1627952 38.0750956,15.1798986 C37.2626718,15.4106637 36.4276259,15.4986807 35.5938952,15.6161682 C34.8592021,15.7197099 34.1420017,15.9062691 33.4133587,16.0358606 C33.135843,15.904164 32.8584589,15.7723359 32.5813378,15.6399815 C34.0219203,15.3707995 35.4451415,15.0275464 36.8837511,14.7470498 C36.9279432,14.7383665 36.9140017,14.6641638 36.8696781,14.6692948 C35.2912585,14.8508545 33.7363816,15.183714 32.1697992,15.4428971 C31.8355967,15.2827825 31.5012626,15.1226679 31.1671916,14.9616323 C32.6974735,14.7916503 34.2719474,14.4852354 35.724367,14.0148905 C35.7957846,13.991735 35.7594839,13.8922719 35.6892501,13.9064809 C34.050461,14.2417085 32.3911541,14.4436608 30.7515758,14.7607325 C30.3929098,14.5874614 30.0341123,14.4140587 29.6758409,14.2399982 C31.1799495,14.05436 32.7365361,13.7363673 34.1677804,13.2918091 C34.2047386,13.280363 34.1942167,13.2231322 34.1556802,13.2251057 C32.5154443,13.3128595 30.8632397,13.783336 29.2389182,14.0272576 C28.9988868,13.9104278 28.758724,13.7937297 28.5188242,13.6766368 C29.9069286,13.4104808 31.2514985,12.8530398 32.6664338,12.7880467 C32.7620518,12.7837051 32.7549495,12.6391151 32.6598576,12.6401676 C31.9200351,12.6488509 31.2180914,12.7954143 30.5023378,12.9706589 C29.7454171,13.1559025 28.9531165,13.2636542 28.2119787,13.4962612 C28.2005361,13.4998134 28.191724,13.5061285 28.1827804,13.5125752 C27.9034234,13.3760107 27.6241979,13.2391831 27.3448409,13.1023555 C28.5822188,12.8446197 29.7877678,12.4490037 31.0359307,12.251393 C31.128129,12.2369209 31.1256301,12.0929887 31.0293545,12.1035139 C29.654534,12.2549453 28.2962856,12.6312212 26.9367219,12.9026398 C26.6544714,12.7642334 26.3723524,12.6255639 26.0901019,12.4868944 C27.2089766,12.3200699 28.3269307,12.1377208 29.4168701,11.8307797 C29.5441854,11.7948624 29.4806593,11.6011987 29.3536071,11.6358003 C28.1491102,11.9620815 26.9160727,12.0975935 25.6867177,12.288889 C25.4599704,12.1773219 25.233223,12.0660179 25.0064756,11.9545823 C25.9622605,11.8132815 26.9081812,11.6075138 27.8597574,11.4423997 C27.9754985,11.4224019 27.9690539,11.2376846 27.8514714,11.2575509 C26.7829704,11.4381897 25.7178889,11.6281695 24.6442585,11.7764433 C24.4486823,11.6802693 24.2531061,11.5840953 24.0573983,11.4879212 C24.8404923,11.3705652 25.6245069,11.1871636 26.3956322,11.0384952 C26.4819119,11.0217864 26.454818,10.8715392 26.3678806,10.8857482 C25.4843023,11.0308644 24.5649495,11.1075668 23.688605,11.3066247 C23.4331854,11.1809801 23.1775027,11.055467 22.92182,10.9298225 C23.66401,10.8332537 24.3965987,10.6448526 25.1335278,10.5239444 C25.2275674,10.5084197 25.2242793,10.3602775 25.1266885,10.3731709 C24.26639,10.4867115 23.4133253,10.6402479 22.5521061,10.7481312 C22.4717449,10.7086617 22.3915152,10.6691922 22.3110225,10.6297227 C22.1624004,10.5567041 22.0143044,10.4823698 21.8656823,10.4092197 C22.3261478,10.3515942 22.784772,10.2683136 23.2432647,10.2075305 C23.3363837,10.1951634 23.3329641,10.0529416 23.236557,10.0596515 C22.6464088,10.1009629 22.056129,10.1560886 21.4666384,10.2117406 C21.3190685,10.1388536 21.1714985,10.0655719 21.0239286,9.99242173 C21.2798743,9.95176814 21.5339787,9.89808962 21.7859787,9.82230817 C21.9125048,9.78415431 21.8493733,9.59022748 21.7225841,9.62732882 C21.3697052,9.73060735 21.0089349,9.7774445 20.6456656,9.80520472 C20.4741582,9.72034528 20.3026509,9.63574898 20.1314067,9.55062642 C20.1556071,9.54641634 20.179939,9.54194312 20.2037449,9.538654 C20.3798555,9.51378821 20.5562292,9.4905012 20.7329975,9.47089802 C20.8507115,9.45774152 20.8447929,9.28315474 20.7247115,9.28591761 C20.4201019,9.29302212 20.0505194,9.27736588 19.7463044,9.35998871 C16.572367,7.77923507 13.4135549,6.16295888 10.2839411,4.49931929 C7.69949436,3.12551742 4.38166973,1.34873191 1.86877203,0.79444851 C3.85662589,0.934302119 5.81396618,1.77737073 7.69357578,2.37796501 M44.4148159,29.062902 C44.0744317,29.8421616 43.7044547,30.6215527 43.3380288,31.4055486 C43.5453106,30.0747685 43.7661395,28.7455672 44.0214276,27.4172868 C44.4232334,27.2673027 44.3439244,26.6970999 44.0094589,26.6088198 C43.9577699,26.539485 43.8845111,26.4814649 43.7842898,26.4458107 C42.021342,25.8198244 40.391628,24.6424491 38.8697637,23.5716415 C37.0884025,22.3182216 35.2737658,21.1126914 33.4312459,19.9514986 C29.903772,17.7285761 26.1984777,15.8711412 22.5581562,13.8506973 C18.9325653,11.838542 15.4307386,9.60535746 11.9516656,7.35230661 C8.8950476,5.37277941 5.89971983,3.19972009 2.74537954,1.36030963 C3.99604134,1.85709912 5.00298914,2.49545257 6.15369269,3.17038109 C7.60966347,4.02436959 9.3059286,4.63825194 10.7859683,5.45224468 C14.7707511,7.64345998 18.8026196,9.74968428 22.8651332,11.7928889 C26.8092752,13.7766262 30.7713044,15.7324717 34.746486,17.6531893 C38.6098722,19.5198337 42.5466489,21.406476 46.6234985,22.7637007 C46.6762397,22.7813304 46.7250351,22.7869877 46.7713315,22.7871193 C46.779223,22.7990917 46.7867198,22.8113273 46.7956635,22.8223787 C46.1477762,24.9629415 45.3098367,27.0136453 44.4148159,29.062902 M42.3305549,36.0111135 C42.4882522,36.019139 42.6409516,35.9411209 42.6710706,35.7507463 C42.7163148,35.4651187 42.7603754,35.179491 42.8044359,34.893995 C43.5375507,33.1276031 44.2167407,31.3312144 44.9532752,29.5674538 C45.8423775,27.4382056 46.6732146,25.251332 47.1691916,22.9922291 C47.2698075,22.9815724 47.3662146,22.9263151 47.4336864,22.8075119 C49.1876906,19.7238911 52.3233545,17.5813548 53.350557,14.0713318 C53.4474902,13.7404458 52.9880768,13.5567811 52.835772,13.8251737 C52.7882919,13.7697848 52.7276593,13.7220267 52.649271,13.6884777 C50.7370434,12.8693539 48.7064443,12.4707119 46.675319,12.0687808 C44.5058305,11.6393526 42.3744839,11.0003413 40.2502397,10.3888271 C35.814724,9.11159397 31.3961749,7.7956807 26.926463,6.63961893 C25.7000017,6.32228412 24.471699,6.01139599 23.2427386,5.70327073 C23.3058701,5.66393279 23.3696593,5.62459485 23.4320017,5.58538847 C23.704914,5.41356457 23.4786927,5.0396568 23.1922334,5.15832844 C22.9493086,5.25884411 22.7176948,5.38251522 22.4908159,5.51618528 C22.3595549,5.48342559 22.2281624,5.45092903 22.097033,5.41816934 C22.3725758,5.25687064 22.6378597,5.08333638 22.8797324,4.88362069 C23.0689954,4.72732146 22.8360664,4.4507718 22.6336509,4.55286625 C22.2226384,4.76034428 21.8125466,4.99689817 21.4077157,5.24674013 C18.8710121,4.6181225 16.3316781,4.00003006 13.7930017,3.38075354 C11.696772,2.86936034 9.6214547,2.27323926 7.54534823,1.68698556 C5.62365094,1.14441145 3.5165048,0.283055302 1.48919374,0.55776305 C1.44237119,0.563946606 1.41751315,0.594864384 1.41027933,0.631439458 C1.33531065,0.625650597 1.2715215,0.661304716 1.23114363,0.715772631 C1.11829603,0.744453804 1.02925428,0.865493617 1.09527933,1.00850479 C2.51074071,4.07423273 4.89776994,6.63646137 6.61613111,9.52997071 C8.50415825,12.7093708 10.4182271,15.8735094 12.2478576,19.0871164 C13.980818,22.130873 15.7018096,25.2122572 17.2497157,28.3546875 C18.056747,29.9930666 18.6760935,31.6830192 19.2792626,33.4031002 C19.7866823,34.8504469 20.1321958,36.3535772 20.9289683,37.6809366 C20.9348868,37.690804 20.9419891,37.6980401 20.9483023,37.7069865 C20.8107282,37.9298576 21.1333566,38.2152222 21.3710205,38.0224794 C22.8289641,36.8410256 24.6046697,36.1600451 26.3151395,35.435385 C28.1790977,34.6454686 30.0043879,33.7434589 31.8453294,32.8999956 C33.2619745,32.2509854 34.6861165,31.6161842 36.0978952,30.9562541 C36.8962459,31.9766724 37.9347595,32.774351 38.8972522,33.6328127 C39.802795,34.4404904 40.4074109,35.5139293 41.501296,36.1064981 C41.5496969,36.1328111 41.5973086,36.1466255 41.6437365,36.1533353 C41.8220831,36.3308165 42.191534,36.3138446 42.3305549,36.0111135" id="Fill-22" fill="#000000"></path>
                <g id="Group-26" transform="translate(41.824635, 34.279412)">
                    <mask id="mask-2" fill="white">
                        <use xlink:href="#path-1"></use>
                    </mask>
                    <g id="Clip-25"></g>
                    <path d="M57.2984342,8.81079682 C60.2283946,9.70876504 62.5895136,12.8242424 61.682261,15.9747854 C61.1101315,17.9614894 58.5354175,18.6402974 56.7167035,18.4513616 C54.9342902,18.2660894 53.8964342,16.7285658 53.5305344,15.1237894 C52.9801065,12.7101482 53.8394843,10.2770116 55.3447766,8.39118673 C56.0068685,8.48015925 56.6605428,8.61531897 57.2984342,8.81079682 M18.1776701,11.5109819 C17.5422777,10.3037033 17.3094802,8.88380662 17.2651566,7.53613467 C17.1899248,5.24012035 17.8109812,1.78419227 20.4222589,1.06744014 C21.6781816,0.722802474 23.1116618,1.27560966 24.1467557,1.95690363 C25.6220605,2.92788164 25.9603403,4.77406137 25.6403424,6.39296866 C25.0071858,9.59506339 22.145881,11.7750209 19.1526576,12.8714763 C18.7688706,12.4564457 18.4358518,12.00177 18.1776701,11.5109819 M83.7801357,2.38436423 C76.9827119,0.860840717 69.3477432,0.865812711 62.654618,2.87031119 C59.8273779,3.71685852 56.9726493,5.08598855 54.974142,7.30402107 C54.3141545,7.24474967 53.6560084,7.22551591 53.0202213,7.23676832 C50.0506722,7.28910509 47.0611315,7.98230567 44.3228017,9.10859307 C42.809881,9.73087732 41.3995491,10.600322 39.9533111,11.3582893 C38.060286,12.3503329 36.1325386,13.2859836 34.1392923,14.0630539 C30.382572,15.5275677 25.9139123,16.6234997 22.0515783,14.9085545 C21.3046534,14.5768701 20.5694342,14.1318767 19.9169436,13.5920229 C23.2763299,12.2766689 26.221547,9.56810995 26.6945073,5.88255427 C27.1255115,2.52567353 24.068762,-0.325764811 20.7259478,0.0374524067 C18.1287432,0.319678465 16.859405,2.9155825 16.4520752,5.20256872 C16.0051566,7.71107034 16.2845136,10.7346967 17.823476,12.8521117 C17.9130438,12.9753648 18.0064259,13.094431 18.1015177,13.2115345 C17.8854238,13.272376 17.6697244,13.3275913 17.4554718,13.3770496 C14.0363737,14.1656339 10.088286,13.5436114 7.01851566,11.8919936 C3.87680167,10.2015158 1.73467015,7.23624495 0.669194154,3.89166335 C0.561870564,3.5548762 0.0297244259,3.6855873 0.131655532,4.02904738 C1.23408977,7.75071545 3.5707453,10.9019127 7.0198309,12.772429 C10.5000877,14.6598239 14.9323152,15.0853219 18.7269144,13.9961936 C18.751904,13.9889973 18.776762,13.981016 18.80162,13.973558 C21.1190731,16.2072915 24.5456681,17.0092218 27.7164489,16.7583978 C31.8348601,16.4327322 35.7544071,14.6750016 39.3918351,12.8368032 C42.2882568,11.3729436 44.9501712,9.76227939 48.1277912,8.96636788 C50.0680334,8.48029009 52.1507161,8.17817605 54.188286,8.28415802 C52.4703194,10.7233134 51.8054656,13.9505298 53.0174593,16.7519865 C54.4429165,20.0471099 58.8216138,20.1842322 61.3927766,18.1722757 C64.0022129,16.1303565 62.8557182,11.8225165 60.8902234,9.75285877 C59.6520564,8.44928055 57.9532923,7.77295857 56.1833737,7.46116224 C56.2616305,7.38409634 56.3408079,7.30794633 56.4213006,7.23362811 C58.6556305,5.17051244 61.6762109,4.07418785 64.5901253,3.37352928 C70.6529875,1.91608094 77.4152944,1.99092253 83.4906514,3.36214603 C84.1328831,3.50724974 84.4242088,2.52868289 83.7801357,2.38436423" id="Fill-24" fill="#000000" mask="url(#mask-2)"></path>
                </g>
                <path d="M30.8654361,34.3717235 C29.2745217,34.9294709 27.6667722,35.3832028 26.1139998,36.0493975 C24.3578912,36.8029235 22.6858265,37.7958938 20.9818015,38.6595615 C20.9635196,38.668816 20.9476052,38.6792436 20.9334006,38.6901926 C20.3896804,37.7526191 20.1133484,36.6719265 19.6787931,35.6814328 C19.1432273,34.460619 18.5152002,33.2792998 17.9446491,32.0743881 C16.7669831,29.5875308 15.810672,26.9851874 14.5100311,24.5577675 C14.4820165,24.505499 14.3927117,24.5391281 14.4117827,24.5968711 C15.2423568,27.1090155 16.3341376,29.55703 17.4324946,31.9635947 C17.9898933,33.1850602 18.5800415,34.3917967 19.1478307,35.6085698 C19.6651146,36.7171563 19.9553881,37.9499619 20.6009079,38.9950702 C20.6802169,39.1235907 20.8272608,39.1212445 20.9237994,39.0547684 C20.9978474,39.1334969 21.1149038,39.1748164 21.2409038,39.1170734 C22.7852587,38.4092986 24.2304445,37.5134356 25.7366574,36.7329281 C27.3891251,35.87669 29.1504946,35.1318971 30.8909518,34.4701342 C30.9514528,34.4471934 30.9284361,34.3496952 30.8654361,34.3717235" id="Fill-27" fill="#000000"></path>
                <path d="M29.7400378,35.62403 C28.0853342,35.9935043 26.6176578,36.9504545 25.0907956,37.6451803 C23.4638436,38.3856851 21.8539898,39.1944046 20.2945096,40.052664 C20.2717559,40.0652435 20.2530795,40.0798979 20.236376,40.0954602 C19.8090545,39.4288762 19.6400461,38.6630826 19.4300023,37.9057187 C19.1924699,37.0484968 18.762518,36.2899657 18.3525576,35.5038115 C17.3537643,33.5887441 16.475447,31.6684892 15.6927476,29.6581029 C15.6710461,29.6023381 15.5930524,29.6215316 15.6018645,29.6810572 C15.9005555,31.7075246 16.8622591,33.6355606 17.7934491,35.4435077 C18.275353,36.3790597 18.7543635,37.2652014 19.0449,38.2794726 C19.2719104,39.0714626 19.4990524,39.8329765 20.0031839,40.4998199 C20.0773635,40.597992 20.2023113,40.5789282 20.2862236,40.5116213 C20.3601401,40.5632362 20.4583885,40.5794469 20.5620294,40.5225149 C22.0229981,39.722225 23.525923,38.9496878 25.0373969,38.2365467 C26.6097664,37.4944856 28.1409689,36.4182247 29.8307894,35.9721062 C30.0577998,35.9120618 29.9691526,35.5728042 29.7400378,35.62403" id="Fill-29" fill="#000000"></path>
                <path d="M41.2484543,27.2604778 C41.320924,27.2345485 41.3656422,27.1847439 41.3880013,27.1278792 C41.4312727,27.1454649 41.4734919,27.1648477 41.5170263,27.1817915 C41.7773123,27.2834547 41.9006818,26.872181 41.6401328,26.7741119 C39.3025566,25.8943148 37.5693332,23.967464 35.3471035,22.9169446 C35.2314939,22.8623905 35.1350868,23.0119329 35.242805,23.0843294 C37.1228092,24.3458769 38.8340681,25.9487405 40.9121474,26.9196751 C40.0356714,27.2838398 39.2236422,27.7845822 38.3747862,28.2057399 C37.141091,28.8180294 35.8699115,29.3562537 34.6310868,29.9587877 C34.530734,30.0076939 34.5986004,30.1798281 34.7052664,30.1391371 C35.7908656,29.7233707 36.8730451,29.2968219 37.9358906,28.8280417 C39.0495044,28.3369264 40.101828,27.6720082 41.2484543,27.2604778" id="Fill-31" fill="#000000"></path>
                <path d="M10.6226944,7.8661709 C8.30747724,6.57316521 6.34198246,4.73919527 4.09765678,3.33395214 C3.84315783,3.17456991 3.59996994,3.56183965 3.85354823,3.71957876 C6.10760668,5.12090369 8.12268601,6.84503767 10.502876,8.05550839 C10.6334793,8.12186499 10.7519825,7.9383416 10.6226944,7.8661709" id="Fill-33" fill="#000000"></path>
                <path d="M2.197319,3.40856322 C1.54088267,2.31787895 0.80908309,1.24794521 0.242609186,0.111020526 C0.207229228,0.0400588009 0.0928033403,0.0875801007 0.112926514,0.16174407 C0.413721921,1.27497215 1.14131273,2.31608569 1.71409979,3.31288018 C2.38197871,4.47529472 3.20755491,5.54112958 3.80809353,6.74004971 C3.91778455,6.95908319 4.24199123,6.77424967 4.1432167,6.55688136 C3.63250898,5.43443082 2.83257996,4.46415091 2.197319,3.40856322" id="Fill-35" fill="#000000"></path>
                <g id="Group-39" transform="translate(0.000000, 1.323529)">
                    <mask id="mask-4" fill="white">
                        <use xlink:href="#path-3"></use>
                    </mask>
                    <g id="Clip-38"></g>
                    <path d="M1.86445804,2.70753567 C1.29640585,1.90695388 0.477274322,1.08125878 0.178977871,0.141665951 C0.143729436,0.0304317575 -0.0151515658,0.0744434625 0.00115741127,0.185677656 C0.118871399,0.989303485 0.719804593,1.69247609 1.16593403,2.35645671 C1.79159374,3.28755159 2.43829729,4.20152377 3.03239123,5.1520244 C3.17285887,5.37677581 3.54507182,5.17599619 3.40105303,4.95251313 C2.90941628,4.1899818 2.3901595,3.44837823 1.86445804,2.70753567" id="Fill-37" fill="#000000" mask="url(#mask-4)"></path>
                </g>
                <path d="M48.3078476,19.0341206 C47.6817933,19.7443227 47.0386409,20.5531921 46.5546326,21.3563545 C46.4549374,21.5216033 46.7173278,21.6753113 46.817286,21.5103162 C47.3987537,20.5498947 48.1804008,19.5986044 48.9281148,18.7582832 C49.5790271,18.0269019 50.3907933,17.3873396 50.8871649,16.5439747 C50.9417474,16.4513948 50.8022004,16.3702288 50.7413048,16.4584968 C50.0843424,17.4109285 49.0776576,18.1609526 48.3078476,19.0341206" id="Fill-40" fill="#000000"></path>
                <path d="M45.9347073,21.0383079 C45.8325132,21.1976013 46.0879328,21.3449319 46.1924944,21.1882829 C47.2170664,19.6567996 48.5850476,18.3148314 49.8708263,16.9860852 C49.9438221,16.910531 49.8321582,16.7974516 49.7541645,16.8704873 C48.3896029,18.1481085 46.9416551,19.469803 45.9347073,21.0383079" id="Fill-42" fill="#000000"></path>
                <path d="M45.3798338,20.8826744 C45.2584372,21.0427124 45.5349006,21.2010015 45.6545875,21.0414631 C46.5818317,19.8052596 47.5393265,18.3359327 48.8090593,17.3859487 C48.8429925,17.3607124 48.8077441,17.3107395 48.7701282,17.3197346 C48.171957,17.4630318 47.5879904,18.2571005 47.1903933,18.6746237 C46.5247503,19.3733692 45.958671,20.1197138 45.3798338,20.8826744" id="Fill-44" fill="#000000"></path>
                <path d="M44.6937651,20.4799389 C44.6118257,20.6367027 44.8522516,20.7796635 44.9443184,20.6226531 C45.2299885,20.1353541 45.7028173,19.711155 46.0898925,19.2901602 C46.5716649,18.7663816 47.1034165,18.2811776 47.6334582,17.8005337 C47.7236837,17.718701 47.5925543,17.5934871 47.4990407,17.6701436 C46.941642,18.1266321 46.4055501,18.5986491 45.8993142,19.1052972 C45.4864603,19.5185277 44.9622056,19.9661428 44.6937651,20.4799389" id="Fill-46" fill="#000000"></path>
                <path d="M44.4968079,20.5120368 C44.9674008,19.6373026 45.9041148,18.986719 46.3374864,18.0852567 C46.3441942,18.0712853 46.3340668,18.0574353 46.3169687,18.0598651 C46.0727286,18.0948545 45.7145887,18.653105 45.5767516,18.8059405 C45.1375929,19.2927545 44.5450772,19.7964556 44.2609854,20.3794903 C44.1895678,20.5261298 44.4165783,20.6612276 44.4968079,20.5120368" id="Fill-48" fill="#000000"></path>
                <path d="M43.9092507,20.2292482 C44.1227142,20.0160965 44.2630503,19.7560091 44.4542862,19.5273298 C44.7095743,19.2216006 44.940662,18.9008144 45.2041046,18.6001435 C45.2707873,18.5240347 45.1262424,18.4211055 45.0564031,18.4945087 C44.5802862,18.9950388 44.1830837,19.5480333 43.7253802,20.058915 C43.6216077,20.1747839 43.793115,20.3452347 43.9092507,20.2292482" id="Fill-50" fill="#000000"></path>
                <path d="M51.0063388,19.063838 C50.3788378,19.6973413 49.8149944,20.4032965 49.2057752,21.0563953 C48.6240445,21.6799719 47.991414,22.3663315 47.5892136,23.114314 C47.5713263,23.147317 47.5698795,23.1790309 47.575009,23.2085531 C47.3281384,23.9845108 47.0952094,24.7636914 46.8633326,25.5441613 C46.6756478,26.1763754 46.4193075,26.7851263 46.3599902,27.4450578 C46.3548608,27.5026842 46.4521885,27.5177676 46.4632365,27.460528 C46.734176,26.0617672 47.3852198,24.6167249 47.8860633,23.2798448 C47.8980319,23.248002 47.8960591,23.2202846 47.8889568,23.1947589 C48.7267647,21.6991807 50.1594557,20.5747575 51.0857793,19.1259765 C51.1164244,19.0778901 51.0471113,19.0225843 51.0063388,19.063838" id="Fill-52" fill="#000000"></path>
            </g>
        </g>
    </g>
</svg>